<svg width="136" height="61" viewBox="0 0 136 61" fill="none" xmlns="http://www.w3.org/2000/svg">
<g filter="url(#filter0_d)">
<rect x="0.078125" y="0.609375" width="127.868" height="52.3033" rx="16" fill="url(#paint0_linear)"/>
</g>
<path d="M16.8135 33.5547H11.4521L10.248 36.8945H8.50781L13.3945 24.0977H14.8711L19.7666 36.8945H18.0352L16.8135 33.5547ZM11.9619 32.166H16.3125L14.1328 26.1807L11.9619 32.166ZM25.8311 28.8438C25.585 28.8027 25.3184 28.7822 25.0312 28.7822C23.9648 28.7822 23.2412 29.2363 22.8604 30.1445V36.8945H21.2344V27.3848H22.8164L22.8428 28.4834C23.376 27.6338 24.1318 27.209 25.1104 27.209C25.4268 27.209 25.667 27.25 25.8311 27.332V28.8438ZM29.9795 25.082V27.3848H31.7549V28.6416H29.9795V34.5391C29.9795 34.9199 30.0586 35.207 30.2168 35.4004C30.375 35.5879 30.6445 35.6816 31.0254 35.6816C31.2129 35.6816 31.4707 35.6465 31.7988 35.5762V36.8945C31.3711 37.0117 30.9551 37.0703 30.5508 37.0703C29.8242 37.0703 29.2764 36.8506 28.9072 36.4111C28.5381 35.9717 28.3535 35.3477 28.3535 34.5391V28.6416H26.6221V27.3848H28.3535V25.082H29.9795ZM35.4287 36.8945H33.8027V27.3848H35.4287V36.8945ZM33.6709 24.8623C33.6709 24.5986 33.75 24.376 33.9082 24.1943C34.0723 24.0127 34.3125 23.9219 34.6289 23.9219C34.9453 23.9219 35.1855 24.0127 35.3496 24.1943C35.5137 24.376 35.5957 24.5986 35.5957 24.8623C35.5957 25.126 35.5137 25.3457 35.3496 25.5215C35.1855 25.6973 34.9453 25.7852 34.6289 25.7852C34.3125 25.7852 34.0723 25.6973 33.9082 25.5215C33.75 25.3457 33.6709 25.126 33.6709 24.8623ZM41.8535 35.7432C42.4336 35.7432 42.9404 35.5674 43.374 35.2158C43.8076 34.8643 44.0479 34.4248 44.0947 33.8975H45.6328C45.6035 34.4424 45.416 34.9609 45.0703 35.4531C44.7246 35.9453 44.2617 36.3379 43.6816 36.6309C43.1074 36.9238 42.498 37.0703 41.8535 37.0703C40.5586 37.0703 39.5273 36.6396 38.7598 35.7783C37.998 34.9111 37.6172 33.7275 37.6172 32.2275V31.9551C37.6172 31.0293 37.7871 30.2061 38.127 29.4854C38.4668 28.7646 38.9531 28.2051 39.5859 27.8066C40.2246 27.4082 40.9775 27.209 41.8447 27.209C42.9111 27.209 43.7959 27.5283 44.499 28.167C45.208 28.8057 45.5859 29.6348 45.6328 30.6543H44.0947C44.0479 30.0391 43.8135 29.5352 43.3916 29.1426C42.9756 28.7441 42.46 28.5449 41.8447 28.5449C41.0186 28.5449 40.377 28.8438 39.9199 29.4414C39.4688 30.0332 39.2432 30.8916 39.2432 32.0166V32.3242C39.2432 33.4199 39.4688 34.2637 39.9199 34.8555C40.3711 35.4473 41.0156 35.7432 41.8535 35.7432ZM53.332 35.9541C52.6992 36.6982 51.7705 37.0703 50.5459 37.0703C49.5322 37.0703 48.7588 36.7773 48.2256 36.1914C47.6982 35.5996 47.4316 34.7266 47.4258 33.5723V27.3848H49.0518V33.5283C49.0518 34.9697 49.6377 35.6904 50.8096 35.6904C52.0518 35.6904 52.8779 35.2275 53.2881 34.3018V27.3848H54.9141V36.8945H53.3672L53.332 35.9541ZM58.9307 27.3848L58.9834 28.5801C59.71 27.666 60.6592 27.209 61.8311 27.209C63.8408 27.209 64.8545 28.3428 64.8721 30.6104V36.8945H63.2461V30.6016C63.2402 29.916 63.082 29.4092 62.7715 29.0811C62.4668 28.7529 61.9893 28.5889 61.3389 28.5889C60.8115 28.5889 60.3486 28.7295 59.9502 29.0107C59.5518 29.292 59.2412 29.6611 59.0186 30.1182V36.8945H57.3926V27.3848H58.9307ZM66.8936 32.0518C66.8936 31.1201 67.0752 30.2822 67.4385 29.5381C67.8076 28.7939 68.3174 28.2197 68.9678 27.8154C69.624 27.4111 70.3711 27.209 71.209 27.209C72.5039 27.209 73.5498 27.6572 74.3467 28.5537C75.1494 29.4502 75.5508 30.6426 75.5508 32.1309V32.2451C75.5508 33.1709 75.3721 34.0029 75.0146 34.7412C74.6631 35.4736 74.1562 36.0449 73.4941 36.4551C72.8379 36.8652 72.082 37.0703 71.2266 37.0703C69.9375 37.0703 68.8916 36.6221 68.0889 35.7256C67.292 34.8291 66.8936 33.6426 66.8936 32.166V32.0518ZM68.5283 32.2451C68.5283 33.2998 68.7715 34.1465 69.2578 34.7852C69.75 35.4238 70.4062 35.7432 71.2266 35.7432C72.0527 35.7432 72.709 35.4209 73.1953 34.7764C73.6816 34.126 73.9248 33.2178 73.9248 32.0518C73.9248 31.0088 73.6758 30.165 73.1777 29.5205C72.6855 28.8701 72.0293 28.5449 71.209 28.5449C70.4062 28.5449 69.7588 28.8643 69.2666 29.5029C68.7744 30.1416 68.5283 31.0557 68.5283 32.2451Z" fill="#1D1E1D"/>
<g filter="url(#filter1_d)">
<g clip-path="url(#clip0)">
<path d="M116.687 36.94C120.075 33.517 120.075 27.9673 116.687 24.5444C113.3 21.1214 107.807 21.1214 104.419 24.5444C101.031 27.9673 101.031 33.517 104.419 36.94C107.807 40.363 113.3 40.363 116.687 36.94Z" fill="#1D1E1D"/>
<path d="M119.761 29.7683C119.278 25.0609 115.34 21.3906 110.553 21.3906C105.767 21.3906 101.83 25.0609 101.348 29.7683H119.761Z" fill="url(#paint1_linear)"/>
<path d="M101.348 31.7148C101.83 36.4223 105.768 40.0925 110.553 40.0925C115.339 40.0925 119.278 36.4223 119.759 31.7148H101.348Z" fill="#E7E7E9"/>
<path d="M110.553 33.6904C112.164 33.6904 113.47 32.3711 113.47 30.7436C113.47 29.1162 112.164 27.7969 110.553 27.7969C108.942 27.7969 107.637 29.1162 107.637 30.7436C107.637 32.3711 108.942 33.6904 110.553 33.6904Z" fill="#1D1E1D"/>
<path d="M110.552 33.046C111.811 33.046 112.831 32.0152 112.831 30.7437C112.831 29.4722 111.811 28.4414 110.552 28.4414C109.294 28.4414 108.273 29.4722 108.273 30.7437C108.273 32.0152 109.294 33.046 110.552 33.046Z" fill="#F7F7F7"/>
<path d="M110.553 32.2989C111.403 32.2989 112.091 31.6033 112.091 30.7452C112.091 29.8871 111.403 29.1914 110.553 29.1914C109.704 29.1914 109.016 29.8871 109.016 30.7452C109.016 31.6033 109.704 32.2989 110.553 32.2989Z" fill="#B8B5B5"/>
<path d="M110.553 32.1829C111.34 32.1829 111.978 31.5386 111.978 30.7438C111.978 29.949 111.34 29.3047 110.553 29.3047C109.767 29.3047 109.129 29.949 109.129 30.7438C109.129 31.5386 109.767 32.1829 110.553 32.1829Z" fill="#F7F7F7"/>
</g>
</g>
<defs>
<filter id="filter0_d" x="0.078125" y="0.609375" width="135.868" height="60.3033" filterUnits="userSpaceOnUse" color-interpolation-filters="sRGB">
<feFlood flood-opacity="0" result="BackgroundImageFix"/>
<feColorMatrix in="SourceAlpha" type="matrix" values="0 0 0 0 0 0 0 0 0 0 0 0 0 0 0 0 0 0 127 0"/>
<feOffset dx="4" dy="4"/>
<feGaussianBlur stdDeviation="2"/>
<feColorMatrix type="matrix" values="0 0 0 0 0.129167 0 0 0 0 0.129167 0 0 0 0 0.129167 0 0 0 0.1 0"/>
<feBlend mode="normal" in2="BackgroundImageFix" result="effect1_dropShadow"/>
<feBlend mode="normal" in="SourceGraphic" in2="effect1_dropShadow" result="shape"/>
</filter>
<filter id="filter1_d" x="97.3477" y="21.3906" width="26.413" height="26.7045" filterUnits="userSpaceOnUse" color-interpolation-filters="sRGB">
<feFlood flood-opacity="0" result="BackgroundImageFix"/>
<feColorMatrix in="SourceAlpha" type="matrix" values="0 0 0 0 0 0 0 0 0 0 0 0 0 0 0 0 0 0 127 0"/>
<feOffset dy="4"/>
<feGaussianBlur stdDeviation="2"/>
<feColorMatrix type="matrix" values="0 0 0 0 0 0 0 0 0 0 0 0 0 0 0 0 0 0 0.25 0"/>
<feBlend mode="normal" in2="BackgroundImageFix" result="effect1_dropShadow"/>
<feBlend mode="normal" in="SourceGraphic" in2="effect1_dropShadow" result="shape"/>
</filter>
<linearGradient id="paint0_linear" x1="64.012" y1="0.609375" x2="64.012" y2="52.9126" gradientUnits="userSpaceOnUse">
<stop offset="0.30316" stop-color="white"/>
<stop offset="1" stop-color="#F5F5F5"/>
</linearGradient>
<linearGradient id="paint1_linear" x1="121.322" y1="28.4031" x2="104.725" y2="28.7479" gradientUnits="userSpaceOnUse">
<stop stop-color="#B57E10"/>
<stop offset="0.240861" stop-color="#B57E10"/>
<stop offset="0.404291" stop-color="#F9DF7B"/>
<stop offset="0.59375" stop-color="#FFF3A6"/>
<stop offset="0.78125" stop-color="#F9DF7B"/>
<stop offset="1" stop-color="#B57E10"/>
</linearGradient>
<clipPath id="clip0">
<rect width="18.413" height="18.7045" fill="white" transform="translate(101.348 21.3906)"/>
</clipPath>
</defs>
</svg>
