<svg width="137" height="61" viewBox="0 0 137 61" fill="none" xmlns="http://www.w3.org/2000/svg">
<g filter="url(#filter0_d)">
<rect x="0.136719" y="0.609375" width="127.868" height="52.3033" rx="16" fill="url(#paint0_linear)"/>
</g>
<path d="M9.80566 36.8945V24.0977H13.418C14.5312 24.0977 15.5156 24.3438 16.3711 24.8359C17.2266 25.3281 17.8857 26.0283 18.3486 26.9365C18.8174 27.8447 19.0547 28.8877 19.0605 30.0654V30.8828C19.0605 32.0898 18.8262 33.1475 18.3574 34.0557C17.8945 34.9639 17.2295 35.6611 16.3623 36.1475C15.501 36.6338 14.4961 36.8828 13.3477 36.8945H9.80566ZM11.4932 25.4863V35.5146H13.2686C14.5693 35.5146 15.5801 35.1104 16.3008 34.3018C17.0273 33.4932 17.3906 32.3418 17.3906 30.8477V30.1006C17.3906 28.6475 17.0479 27.5195 16.3623 26.7168C15.6826 25.9082 14.7158 25.498 13.4619 25.4863H11.4932ZM23.1299 36.8945H21.5039V27.3848H23.1299V36.8945ZM21.3721 24.8623C21.3721 24.5986 21.4512 24.376 21.6094 24.1943C21.7734 24.0127 22.0137 23.9219 22.3301 23.9219C22.6465 23.9219 22.8867 24.0127 23.0508 24.1943C23.2148 24.376 23.2969 24.5986 23.2969 24.8623C23.2969 25.126 23.2148 25.3457 23.0508 25.5215C22.8867 25.6973 22.6465 25.7852 22.3301 25.7852C22.0137 25.7852 21.7734 25.6973 21.6094 25.5215C21.4512 25.3457 21.3721 25.126 21.3721 24.8623ZM31.6113 36.8945C31.5176 36.707 31.4414 36.373 31.3828 35.8926C30.627 36.6777 29.7246 37.0703 28.6758 37.0703C27.7383 37.0703 26.9678 36.8066 26.3643 36.2793C25.7666 35.7461 25.4678 35.0723 25.4678 34.2578C25.4678 33.2676 25.8428 32.5 26.5928 31.9551C27.3486 31.4043 28.4092 31.1289 29.7744 31.1289H31.3564V30.3818C31.3564 29.8135 31.1865 29.3623 30.8467 29.0283C30.5068 28.6885 30.0059 28.5186 29.3438 28.5186C28.7637 28.5186 28.2773 28.665 27.8848 28.958C27.4922 29.251 27.2959 29.6055 27.2959 30.0215H25.6611C25.6611 29.5469 25.8281 29.0898 26.1621 28.6504C26.502 28.2051 26.959 27.8535 27.5332 27.5957C28.1133 27.3379 28.749 27.209 29.4404 27.209C30.5361 27.209 31.3945 27.4844 32.0156 28.0352C32.6367 28.5801 32.959 29.333 32.9824 30.2939V34.6709C32.9824 35.5439 33.0938 36.2383 33.3164 36.7539V36.8945H31.6113ZM28.9131 35.6553C29.4229 35.6553 29.9062 35.5234 30.3633 35.2598C30.8203 34.9961 31.1514 34.6533 31.3564 34.2314V32.2803H30.082C28.0898 32.2803 27.0938 32.8633 27.0938 34.0293C27.0938 34.5391 27.2637 34.9375 27.6035 35.2246C27.9434 35.5117 28.3799 35.6553 28.9131 35.6553ZM37.0693 27.3848L37.1221 28.5801C37.8486 27.666 38.7979 27.209 39.9697 27.209C41.9795 27.209 42.9932 28.3428 43.0107 30.6104V36.8945H41.3848V30.6016C41.3789 29.916 41.2207 29.4092 40.9102 29.0811C40.6055 28.7529 40.1279 28.5889 39.4775 28.5889C38.9502 28.5889 38.4873 28.7295 38.0889 29.0107C37.6904 29.292 37.3799 29.6611 37.1572 30.1182V36.8945H35.5312V27.3848H37.0693ZM49.2773 35.7432C49.8574 35.7432 50.3643 35.5674 50.7979 35.2158C51.2314 34.8643 51.4717 34.4248 51.5186 33.8975H53.0566C53.0273 34.4424 52.8398 34.9609 52.4941 35.4531C52.1484 35.9453 51.6855 36.3379 51.1055 36.6309C50.5312 36.9238 49.9219 37.0703 49.2773 37.0703C47.9824 37.0703 46.9512 36.6396 46.1836 35.7783C45.4219 34.9111 45.041 33.7275 45.041 32.2275V31.9551C45.041 31.0293 45.2109 30.2061 45.5508 29.4854C45.8906 28.7646 46.377 28.2051 47.0098 27.8066C47.6484 27.4082 48.4014 27.209 49.2686 27.209C50.335 27.209 51.2197 27.5283 51.9229 28.167C52.6318 28.8057 53.0098 29.6348 53.0566 30.6543H51.5186C51.4717 30.0391 51.2373 29.5352 50.8154 29.1426C50.3994 28.7441 49.8838 28.5449 49.2686 28.5449C48.4424 28.5449 47.8008 28.8438 47.3438 29.4414C46.8926 30.0332 46.667 30.8916 46.667 32.0166V32.3242C46.667 33.4199 46.8926 34.2637 47.3438 34.8555C47.7949 35.4473 48.4395 35.7432 49.2773 35.7432ZM58.8311 37.0703C57.542 37.0703 56.4932 36.6484 55.6846 35.8047C54.876 34.9551 54.4717 33.8213 54.4717 32.4033V32.1045C54.4717 31.1611 54.6504 30.3203 55.0078 29.582C55.3711 28.8379 55.875 28.2578 56.5195 27.8418C57.1699 27.4199 57.873 27.209 58.6289 27.209C59.8652 27.209 60.8262 27.6162 61.5117 28.4307C62.1973 29.2451 62.54 30.4111 62.54 31.9287V32.6055H56.0977C56.1211 33.543 56.3936 34.3018 56.915 34.8818C57.4424 35.4561 58.1104 35.7432 58.9189 35.7432C59.4932 35.7432 59.9795 35.626 60.3779 35.3916C60.7764 35.1572 61.125 34.8467 61.4238 34.46L62.417 35.2334C61.6201 36.458 60.4248 37.0703 58.8311 37.0703ZM58.6289 28.5449C57.9727 28.5449 57.4219 28.7852 56.9766 29.2656C56.5312 29.7402 56.2559 30.4082 56.1504 31.2695H60.9141V31.1465C60.8672 30.3203 60.6445 29.6816 60.2461 29.2305C59.8477 28.7734 59.3086 28.5449 58.6289 28.5449Z" fill="#1D1E1D"/>
<g filter="url(#filter1_d)">
<g clip-path="url(#clip0)">
<path d="M116.746 36.94C120.134 33.517 120.134 27.9673 116.746 24.5444C113.358 21.1214 107.866 21.1214 104.478 24.5444C101.09 27.9673 101.09 33.517 104.478 36.94C107.866 40.363 113.358 40.363 116.746 36.94Z" fill="#1D1E1D"/>
<path d="M119.819 29.7683C119.337 25.0609 115.399 21.3906 110.612 21.3906C105.825 21.3906 101.889 25.0609 101.406 29.7683H119.819Z" fill="url(#paint1_linear)"/>
<path d="M101.406 31.7148C101.889 36.4223 105.827 40.0925 110.612 40.0925C115.398 40.0925 119.337 36.4223 119.818 31.7148H101.406Z" fill="#E7E7E9"/>
<path d="M110.612 33.6904C112.222 33.6904 113.528 32.3711 113.528 30.7436C113.528 29.1162 112.222 27.7969 110.612 27.7969C109.001 27.7969 107.695 29.1162 107.695 30.7436C107.695 32.3711 109.001 33.6904 110.612 33.6904Z" fill="#1D1E1D"/>
<path d="M110.611 33.046C111.869 33.046 112.889 32.0152 112.889 30.7437C112.889 29.4722 111.869 28.4414 110.611 28.4414C109.352 28.4414 108.332 29.4722 108.332 30.7437C108.332 32.0152 109.352 33.046 110.611 33.046Z" fill="#F7F7F7"/>
<path d="M110.612 32.2989C111.461 32.2989 112.15 31.6033 112.15 30.7452C112.15 29.8871 111.461 29.1914 110.612 29.1914C109.763 29.1914 109.074 29.8871 109.074 30.7452C109.074 31.6033 109.763 32.2989 110.612 32.2989Z" fill="#B8B5B5"/>
<path d="M110.612 32.1829C111.398 32.1829 112.036 31.5386 112.036 30.7438C112.036 29.949 111.398 29.3047 110.612 29.3047C109.825 29.3047 109.188 29.949 109.188 30.7438C109.188 31.5386 109.825 32.1829 110.612 32.1829Z" fill="#F7F7F7"/>
</g>
</g>
<defs>
<filter id="filter0_d" x="0.136719" y="0.609375" width="135.868" height="60.3033" filterUnits="userSpaceOnUse" color-interpolation-filters="sRGB">
<feFlood flood-opacity="0" result="BackgroundImageFix"/>
<feColorMatrix in="SourceAlpha" type="matrix" values="0 0 0 0 0 0 0 0 0 0 0 0 0 0 0 0 0 0 127 0"/>
<feOffset dx="4" dy="4"/>
<feGaussianBlur stdDeviation="2"/>
<feColorMatrix type="matrix" values="0 0 0 0 0.129167 0 0 0 0 0.129167 0 0 0 0 0.129167 0 0 0 0.1 0"/>
<feBlend mode="normal" in2="BackgroundImageFix" result="effect1_dropShadow"/>
<feBlend mode="normal" in="SourceGraphic" in2="effect1_dropShadow" result="shape"/>
</filter>
<filter id="filter1_d" x="97.4062" y="21.3906" width="26.413" height="26.7045" filterUnits="userSpaceOnUse" color-interpolation-filters="sRGB">
<feFlood flood-opacity="0" result="BackgroundImageFix"/>
<feColorMatrix in="SourceAlpha" type="matrix" values="0 0 0 0 0 0 0 0 0 0 0 0 0 0 0 0 0 0 127 0"/>
<feOffset dy="4"/>
<feGaussianBlur stdDeviation="2"/>
<feColorMatrix type="matrix" values="0 0 0 0 0 0 0 0 0 0 0 0 0 0 0 0 0 0 0.25 0"/>
<feBlend mode="normal" in2="BackgroundImageFix" result="effect1_dropShadow"/>
<feBlend mode="normal" in="SourceGraphic" in2="effect1_dropShadow" result="shape"/>
</filter>
<linearGradient id="paint0_linear" x1="64.0706" y1="0.609375" x2="64.0706" y2="52.9126" gradientUnits="userSpaceOnUse">
<stop offset="0.30316" stop-color="white"/>
<stop offset="1" stop-color="#F5F5F5"/>
</linearGradient>
<linearGradient id="paint1_linear" x1="121.381" y1="28.4031" x2="104.784" y2="28.7479" gradientUnits="userSpaceOnUse">
<stop stop-color="#B57E10"/>
<stop offset="0.240861" stop-color="#B57E10"/>
<stop offset="0.404291" stop-color="#F9DF7B"/>
<stop offset="0.59375" stop-color="#FFF3A6"/>
<stop offset="0.78125" stop-color="#F9DF7B"/>
<stop offset="1" stop-color="#B57E10"/>
</linearGradient>
<clipPath id="clip0">
<rect width="18.413" height="18.7045" fill="white" transform="translate(101.406 21.3906)"/>
</clipPath>
</defs>
</svg>
