<svg width="137" height="61" viewBox="0 0 137 61" fill="none" xmlns="http://www.w3.org/2000/svg">
<g filter="url(#filter0_d)">
<rect x="0.550781" y="0.609375" width="127.868" height="52.3033" rx="16" fill="url(#paint0_linear)"/>
</g>
<path d="M12.3994 24.0977L16.583 34.5391L20.7666 24.0977H22.9551V36.8945H21.2676V31.9111L21.4258 26.5322L17.2246 36.8945H15.9326L11.7402 26.5586L11.9072 31.9111V36.8945H10.2197V24.0977H12.3994ZM25.249 32.0518C25.249 31.1201 25.4307 30.2822 25.7939 29.5381C26.1631 28.7939 26.6729 28.2197 27.3232 27.8154C27.9795 27.4111 28.7266 27.209 29.5645 27.209C30.8594 27.209 31.9053 27.6572 32.7021 28.5537C33.5049 29.4502 33.9062 30.6426 33.9062 32.1309V32.2451C33.9062 33.1709 33.7275 34.0029 33.3701 34.7412C33.0186 35.4736 32.5117 36.0449 31.8496 36.4551C31.1934 36.8652 30.4375 37.0703 29.582 37.0703C28.293 37.0703 27.2471 36.6221 26.4443 35.7256C25.6475 34.8291 25.249 33.6426 25.249 32.166V32.0518ZM26.8838 32.2451C26.8838 33.2998 27.127 34.1465 27.6133 34.7852C28.1055 35.4238 28.7617 35.7432 29.582 35.7432C30.4082 35.7432 31.0645 35.4209 31.5508 34.7764C32.0371 34.126 32.2803 33.2178 32.2803 32.0518C32.2803 31.0088 32.0312 30.165 31.5332 29.5205C31.041 28.8701 30.3848 28.5449 29.5645 28.5449C28.7617 28.5449 28.1143 28.8643 27.6221 29.5029C27.1299 30.1416 26.8838 31.0557 26.8838 32.2451ZM37.7119 36.8945H36.0859V23.3945H37.7119V36.8945ZM42.5283 25.082V27.3848H44.3037V28.6416H42.5283V34.5391C42.5283 34.9199 42.6074 35.207 42.7656 35.4004C42.9238 35.5879 43.1934 35.6816 43.5742 35.6816C43.7617 35.6816 44.0195 35.6465 44.3477 35.5762V36.8945C43.9199 37.0117 43.5039 37.0703 43.0996 37.0703C42.373 37.0703 41.8252 36.8506 41.4561 36.4111C41.0869 35.9717 40.9023 35.3477 40.9023 34.5391V28.6416H39.1709V27.3848H40.9023V25.082H42.5283ZM50.8076 28.8438C50.5615 28.8027 50.2949 28.7822 50.0078 28.7822C48.9414 28.7822 48.2178 29.2363 47.8369 30.1445V36.8945H46.2109V27.3848H47.793L47.8193 28.4834C48.3525 27.6338 49.1084 27.209 50.0869 27.209C50.4033 27.209 50.6436 27.25 50.8076 27.332V28.8438ZM56.0811 37.0703C54.792 37.0703 53.7432 36.6484 52.9346 35.8047C52.126 34.9551 51.7217 33.8213 51.7217 32.4033V32.1045C51.7217 31.1611 51.9004 30.3203 52.2578 29.582C52.6211 28.8379 53.125 28.2578 53.7695 27.8418C54.4199 27.4199 55.123 27.209 55.8789 27.209C57.1152 27.209 58.0762 27.6162 58.7617 28.4307C59.4473 29.2451 59.79 30.4111 59.79 31.9287V32.6055H53.3477C53.3711 33.543 53.6436 34.3018 54.165 34.8818C54.6924 35.4561 55.3604 35.7432 56.1689 35.7432C56.7432 35.7432 57.2295 35.626 57.6279 35.3916C58.0264 35.1572 58.375 34.8467 58.6738 34.46L59.667 35.2334C58.8701 36.458 57.6748 37.0703 56.0811 37.0703ZM55.8789 28.5449C55.2227 28.5449 54.6719 28.7852 54.2266 29.2656C53.7812 29.7402 53.5059 30.4082 53.4004 31.2695H58.1641V31.1465C58.1172 30.3203 57.8945 29.6816 57.4961 29.2305C57.0977 28.7734 56.5586 28.5449 55.8789 28.5449ZM67.2168 34.3721C67.2168 33.9326 67.0498 33.5928 66.7158 33.3525C66.3877 33.1064 65.8105 32.8955 64.9844 32.7197C64.1641 32.5439 63.5107 32.333 63.0244 32.0869C62.5439 31.8408 62.1865 31.5479 61.9521 31.208C61.7236 30.8682 61.6094 30.4639 61.6094 29.9951C61.6094 29.2158 61.9375 28.5566 62.5938 28.0176C63.2559 27.4785 64.0996 27.209 65.125 27.209C66.2031 27.209 67.0762 27.4873 67.7441 28.0439C68.418 28.6006 68.7549 29.3125 68.7549 30.1797H67.1201C67.1201 29.7344 66.9297 29.3506 66.5488 29.0283C66.1738 28.7061 65.6992 28.5449 65.125 28.5449C64.5332 28.5449 64.0703 28.6738 63.7363 28.9316C63.4023 29.1895 63.2354 29.5264 63.2354 29.9424C63.2354 30.335 63.3906 30.6309 63.7012 30.8301C64.0117 31.0293 64.5713 31.2197 65.3799 31.4014C66.1943 31.583 66.8535 31.7998 67.3574 32.0518C67.8613 32.3037 68.2334 32.6084 68.4736 32.9658C68.7197 33.3174 68.8428 33.748 68.8428 34.2578C68.8428 35.1074 68.5029 35.79 67.8232 36.3057C67.1436 36.8154 66.2617 37.0703 65.1777 37.0703C64.416 37.0703 63.7422 36.9355 63.1562 36.666C62.5703 36.3965 62.1104 36.0215 61.7764 35.541C61.4482 35.0547 61.2842 34.5303 61.2842 33.9678H62.9102C62.9395 34.5127 63.1562 34.9463 63.5605 35.2686C63.9707 35.585 64.5098 35.7432 65.1777 35.7432C65.793 35.7432 66.2852 35.6201 66.6543 35.374C67.0293 35.1221 67.2168 34.7881 67.2168 34.3721Z" fill="#1D1E1D"/>
<g filter="url(#filter1_d)">
<g clip-path="url(#clip0)">
<path d="M117.16 36.94C120.548 33.517 120.548 27.9673 117.16 24.5444C113.772 21.1214 108.28 21.1214 104.892 24.5444C101.504 27.9673 101.504 33.517 104.892 36.94C108.28 40.363 113.772 40.363 117.16 36.94Z" fill="#1D1E1D"/>
<path d="M120.233 29.7683C119.751 25.0609 115.813 21.3906 111.026 21.3906C106.239 21.3906 102.303 25.0609 101.82 29.7683H120.233Z" fill="url(#paint1_linear)"/>
<path d="M101.82 31.7148C102.303 36.4223 106.241 40.0925 111.026 40.0925C115.812 40.0925 119.751 36.4223 120.232 31.7148H101.82Z" fill="#E7E7E9"/>
<path d="M111.026 33.6904C112.637 33.6904 113.942 32.3711 113.942 30.7436C113.942 29.1162 112.637 27.7969 111.026 27.7969C109.415 27.7969 108.109 29.1162 108.109 30.7436C108.109 32.3711 109.415 33.6904 111.026 33.6904Z" fill="#1D1E1D"/>
<path d="M111.025 33.046C112.283 33.046 113.303 32.0152 113.303 30.7437C113.303 29.4722 112.283 28.4414 111.025 28.4414C109.766 28.4414 108.746 29.4722 108.746 30.7437C108.746 32.0152 109.766 33.046 111.025 33.046Z" fill="#F7F7F7"/>
<path d="M111.026 32.2989C111.875 32.2989 112.564 31.6033 112.564 30.7452C112.564 29.8871 111.875 29.1914 111.026 29.1914C110.177 29.1914 109.488 29.8871 109.488 30.7452C109.488 31.6033 110.177 32.2989 111.026 32.2989Z" fill="#B8B5B5"/>
<path d="M111.026 32.1829C111.812 32.1829 112.45 31.5386 112.45 30.7438C112.45 29.949 111.812 29.3047 111.026 29.3047C110.239 29.3047 109.602 29.949 109.602 30.7438C109.602 31.5386 110.239 32.1829 111.026 32.1829Z" fill="#F7F7F7"/>
</g>
</g>
<defs>
<filter id="filter0_d" x="0.550781" y="0.609375" width="135.868" height="60.3033" filterUnits="userSpaceOnUse" color-interpolation-filters="sRGB">
<feFlood flood-opacity="0" result="BackgroundImageFix"/>
<feColorMatrix in="SourceAlpha" type="matrix" values="0 0 0 0 0 0 0 0 0 0 0 0 0 0 0 0 0 0 127 0"/>
<feOffset dx="4" dy="4"/>
<feGaussianBlur stdDeviation="2"/>
<feColorMatrix type="matrix" values="0 0 0 0 0.129167 0 0 0 0 0.129167 0 0 0 0 0.129167 0 0 0 0.1 0"/>
<feBlend mode="normal" in2="BackgroundImageFix" result="effect1_dropShadow"/>
<feBlend mode="normal" in="SourceGraphic" in2="effect1_dropShadow" result="shape"/>
</filter>
<filter id="filter1_d" x="97.8203" y="21.3906" width="26.413" height="26.7045" filterUnits="userSpaceOnUse" color-interpolation-filters="sRGB">
<feFlood flood-opacity="0" result="BackgroundImageFix"/>
<feColorMatrix in="SourceAlpha" type="matrix" values="0 0 0 0 0 0 0 0 0 0 0 0 0 0 0 0 0 0 127 0"/>
<feOffset dy="4"/>
<feGaussianBlur stdDeviation="2"/>
<feColorMatrix type="matrix" values="0 0 0 0 0 0 0 0 0 0 0 0 0 0 0 0 0 0 0.25 0"/>
<feBlend mode="normal" in2="BackgroundImageFix" result="effect1_dropShadow"/>
<feBlend mode="normal" in="SourceGraphic" in2="effect1_dropShadow" result="shape"/>
</filter>
<linearGradient id="paint0_linear" x1="64.4847" y1="0.609375" x2="64.4847" y2="52.9126" gradientUnits="userSpaceOnUse">
<stop offset="0.30316" stop-color="white"/>
<stop offset="1" stop-color="#F5F5F5"/>
</linearGradient>
<linearGradient id="paint1_linear" x1="121.795" y1="28.4031" x2="105.198" y2="28.7479" gradientUnits="userSpaceOnUse">
<stop stop-color="#B57E10"/>
<stop offset="0.240861" stop-color="#B57E10"/>
<stop offset="0.404291" stop-color="#F9DF7B"/>
<stop offset="0.59375" stop-color="#FFF3A6"/>
<stop offset="0.78125" stop-color="#F9DF7B"/>
<stop offset="1" stop-color="#B57E10"/>
</linearGradient>
<clipPath id="clip0">
<rect width="18.413" height="18.7045" fill="white" transform="translate(101.82 21.3906)"/>
</clipPath>
</defs>
</svg>
