<svg width="413" height="205" viewBox="0 0 413 205" fill="none" xmlns="http://www.w3.org/2000/svg">
<path d="M3.34094 4.60006V9.03206H8.28494V4.60006H9.54894V14.6641H8.28494V10.1201H3.34094V14.6641H2.07694V4.60006H3.34094ZM15.4201 13.8161C16.4761 13.8161 17.0787 13.3521 17.2281 12.4241H18.5241C18.4067 13.1921 18.0654 13.7894 17.5001 14.2161C16.9454 14.6321 16.2521 14.8401 15.4201 14.8401C14.3961 14.8401 13.5641 14.4774 12.9241 13.7521C12.2841 13.0161 11.9641 12.0401 11.9641 10.8241C11.9641 9.60806 12.2841 8.6374 12.9241 7.91206C13.5747 7.18673 14.4334 6.82406 15.5001 6.82406C16.5774 6.82406 17.3774 7.24006 17.9001 8.07206C18.4334 8.90406 18.6201 9.9174 18.4601 11.1121H13.2281C13.2281 11.9014 13.4201 12.5521 13.8041 13.0641C14.1881 13.5654 14.7267 13.8161 15.4201 13.8161ZM16.3481 8.02406C16.1027 7.89606 15.8041 7.83206 15.4521 7.83206C14.8014 7.83206 14.2841 8.05606 13.9001 8.50406C13.5267 8.9414 13.3081 9.49073 13.2441 10.1521H17.3241C17.3241 9.0854 16.9987 8.37606 16.3481 8.02406ZM25.7504 9.70406C25.7504 9.01073 25.6064 8.51473 25.3184 8.21606C25.0304 7.9174 24.6091 7.76806 24.0544 7.76806C23.5104 7.76806 23.0678 7.88006 22.7264 8.10406C22.3958 8.3174 22.2304 8.65873 22.2304 9.12806H20.8384C20.8384 7.95473 21.4678 7.2294 22.7264 6.95206C23.1104 6.86673 23.5264 6.82406 23.9744 6.82406C24.9238 6.82406 25.6651 7.06406 26.1984 7.54406C26.7318 8.02406 26.9984 8.75473 26.9984 9.73606V14.6641H25.9104L25.7824 13.3841C25.3131 14.3547 24.4651 14.8401 23.2384 14.8401C22.4171 14.8401 21.7558 14.6107 21.2544 14.1521C20.7638 13.6934 20.5184 13.1227 20.5184 12.4401C20.5184 11.7574 20.7904 11.2241 21.3344 10.8401C21.8891 10.4561 22.5771 10.2641 23.3984 10.2641C24.2198 10.2641 25.0038 10.4027 25.7504 10.6801V9.70406ZM25.7504 11.4801C24.9931 11.2667 24.3318 11.1601 23.7664 11.1601C23.2011 11.1601 22.7424 11.2614 22.3904 11.4641C22.0384 11.6667 21.8624 11.9867 21.8624 12.4241C21.8624 13.3841 22.4064 13.8641 23.4944 13.8641C24.1131 13.8641 24.6411 13.6454 25.0784 13.2081C25.5264 12.7601 25.7504 12.1841 25.7504 11.4801ZM29.9676 3.76806H31.2316V14.6641H29.9676V3.76806ZM38.4519 14.4401C37.5346 14.8667 36.6973 14.9574 35.9399 14.7121C35.3959 14.5414 35.0119 14.1841 34.7879 13.6401C34.6706 13.3734 34.6119 13.0534 34.6119 12.6801V7.97606H33.3799V7.01606H34.6119V4.88806H35.8599V7.01606H38.2599V7.97606H35.8599V12.6641C35.8599 13.4427 36.2226 13.8321 36.9479 13.8321C37.3426 13.8321 37.7853 13.7361 38.2759 13.5441L38.4519 14.4401ZM41.7316 8.42406C42.2436 7.3574 43.0916 6.82406 44.2756 6.82406C45.1822 6.82406 45.8862 7.12273 46.3876 7.72006C46.8996 8.3174 47.1556 9.1334 47.1556 10.1681V14.6641H45.9076V10.1681C45.9076 9.43206 45.7316 8.8774 45.3796 8.50406C45.0382 8.13073 44.5422 7.94406 43.8916 7.94406C43.2409 7.94406 42.7182 8.2214 42.3236 8.77606C41.9289 9.32006 41.7316 10.0774 41.7316 11.0481V14.6641H40.4676V3.76806H41.7316V8.42406ZM48.5878 16.8881C49.1105 17.2934 49.6598 17.4961 50.2358 17.4961C50.6625 17.4961 51.0305 17.2827 51.3398 16.8561C51.5638 16.5467 51.7665 16.0774 51.9478 15.4481L52.1718 14.6641L49.0358 7.01606H50.4438L52.7638 13.1121L54.5718 7.01606H55.8518L52.9878 16.1841C52.7425 16.9627 52.4171 17.5601 52.0118 17.9761C51.6171 18.3921 51.1105 18.6001 50.4918 18.6001C49.8838 18.6001 49.2491 18.4134 48.5878 18.0401V16.8881ZM64.9023 4.60006C66.0116 4.60006 66.8543 4.88273 67.4303 5.44806C68.017 6.00273 68.3103 6.75473 68.3103 7.70406C68.3103 8.6534 68.017 9.4054 67.4303 9.96006C66.8543 10.5041 66.0116 10.7761 64.9023 10.7761H62.9183V14.6641H61.6543V4.60006H64.9023ZM64.9023 9.68806C65.5956 9.68806 66.1183 9.51206 66.4703 9.16006C66.833 8.80806 67.0143 8.32806 67.0143 7.72006C67.0143 7.1014 66.833 6.61073 66.4703 6.24806C66.1183 5.87473 65.5956 5.68806 64.9023 5.68806H62.9183V9.68806H64.9023ZM73.2977 6.82406C74.3644 6.82406 75.223 7.17073 75.8737 7.86406C76.535 8.5574 76.8657 9.5494 76.8657 10.8401C76.8657 12.1201 76.535 13.1067 75.8737 13.8001C75.223 14.4934 74.3644 14.8401 73.2977 14.8401C72.231 14.8401 71.367 14.4934 70.7057 13.8001C70.055 13.1067 69.7297 12.1201 69.7297 10.8401C69.7297 9.5494 70.055 8.5574 70.7057 7.86406C71.367 7.17073 72.231 6.82406 73.2977 6.82406ZM75.5857 10.8401C75.5857 9.92273 75.3937 9.20806 75.0097 8.69606C74.6257 8.1734 74.0604 7.91206 73.3137 7.91206C72.5777 7.91206 72.0124 8.1734 71.6177 8.69606C71.223 9.20806 71.0257 9.92273 71.0257 10.8401C71.0257 11.7467 71.2124 12.4614 71.5857 12.9841C71.959 13.4961 72.5137 13.7521 73.2497 13.7521C73.9964 13.7521 74.5724 13.4961 74.9777 12.9841C75.383 12.4614 75.5857 11.7467 75.5857 10.8401ZM79.3601 7.00006H80.6241V14.6641H79.3601V7.00006ZM79.9841 5.20806C79.7281 5.20806 79.5254 5.13873 79.3761 5.00006C79.2374 4.85073 79.1681 4.65873 79.1681 4.42406C79.1681 4.17873 79.2374 3.98673 79.3761 3.84806C79.5254 3.69873 79.7281 3.62406 79.9841 3.62406C80.2401 3.62406 80.4427 3.69873 80.5921 3.84806C80.7521 3.98673 80.8321 4.17873 80.8321 4.42406C80.8321 4.65873 80.7521 4.85073 80.5921 5.00006C80.4427 5.13873 80.2401 5.20806 79.9841 5.20806ZM85.2773 8.48806C85.7786 7.37873 86.6373 6.82406 87.8533 6.82406C88.76 6.82406 89.464 7.12273 89.9653 7.72006C90.4773 8.3174 90.7333 9.1334 90.7333 10.1681V14.6641H89.4853V10.1681C89.4853 9.43206 89.3093 8.8774 88.9573 8.50406C88.616 8.13073 88.1253 7.94406 87.4853 7.94406C86.8453 7.94406 86.328 8.2054 85.9333 8.72806C85.5386 9.25073 85.3306 9.97606 85.3093 10.9041V14.6641H84.0453V7.01606H85.1333L85.2773 8.48806ZM97.7019 14.4401C96.7846 14.8667 95.9473 14.9574 95.1899 14.7121C94.6459 14.5414 94.2619 14.1841 94.0379 13.6401C93.9206 13.3734 93.8619 13.0534 93.8619 12.6801V7.97606H92.6299V7.01606H93.8619V4.88806H95.1099V7.01606H97.5099V7.97606H95.1099V12.6641C95.1099 13.4427 95.4726 13.8321 96.1979 13.8321C96.5926 13.8321 97.0353 13.7361 97.5259 13.5441L97.7019 14.4401ZM99.3176 8.88806C99.3176 8.25873 99.5842 7.7574 100.118 7.38406C100.662 7.01073 101.392 6.82406 102.31 6.82406C103.227 6.82406 103.942 7.01606 104.454 7.40006C104.976 7.78406 105.248 8.2694 105.27 8.85606H104.038C103.942 8.16273 103.355 7.81606 102.278 7.81606C101.755 7.81606 101.35 7.9334 101.062 8.16806C100.784 8.40273 100.646 8.65873 100.646 8.93606C100.646 9.20273 100.752 9.43206 100.966 9.62406C101.179 9.8054 101.52 9.9654 101.99 10.1041L103.526 10.6161C104.176 10.8187 104.672 11.0801 105.014 11.4001C105.366 11.7094 105.542 12.1414 105.542 12.6961C105.542 13.2401 105.259 13.7361 104.694 14.1841C104.128 14.6214 103.339 14.8401 102.326 14.8401C101.312 14.8401 100.523 14.6161 99.9576 14.1681C99.3922 13.7094 99.0936 13.1227 99.0616 12.4081H100.278C100.299 12.8881 100.491 13.2507 100.854 13.4961C101.227 13.7307 101.691 13.8481 102.246 13.8481C102.8 13.8481 103.259 13.7307 103.622 13.4961C103.984 13.2614 104.166 12.9841 104.166 12.6641C104.166 12.3334 104.059 12.0827 103.846 11.9121C103.632 11.7414 103.286 11.5921 102.806 11.4641L101.318 10.9681C99.9842 10.5734 99.3176 9.88006 99.3176 8.88806Z" fill="#FDFDFD"/>
<rect x="0.460938" y="36.3281" width="168.397" height="7.05474" rx="3.52737" fill="#F6F7F9"/>
<rect x="0.460938" y="36.3281" width="138.783" height="7.05474" rx="3.52737" fill="#F5DB13"/>
<path d="M1.13294 20.6812C1.93294 20.5639 2.63694 20.2812 3.24494 19.8332H4.66894V30.2812H2.78094V22.0892C2.23694 22.3559 1.6876 22.4892 1.13294 22.4892V20.6812ZM11.2357 19.6892C11.8757 19.6892 12.457 19.8012 12.9797 20.0252C13.513 20.2386 13.9664 20.5692 14.3397 21.0172C15.1504 21.9666 15.5557 23.3266 15.5557 25.0972C15.5557 26.8679 15.1504 28.2279 14.3397 29.1772C13.593 30.0626 12.5637 30.5053 11.2517 30.5053C9.92902 30.5053 8.88902 30.0626 8.13169 29.1772C7.33169 28.2492 6.93169 26.8892 6.93169 25.0972C6.93169 23.3052 7.33169 21.9452 8.13169 21.0172C8.88902 20.1319 9.92369 19.6892 11.2357 19.6892ZM13.6037 25.0972C13.6037 23.9026 13.3957 22.9906 12.9797 22.3612C12.5744 21.7212 11.993 21.4012 11.2357 21.4012C10.489 21.4012 9.90769 21.7212 9.49169 22.3612C9.08635 22.9906 8.88369 23.9026 8.88369 25.0972C8.88369 26.2919 9.08635 27.2039 9.49169 27.8332C9.90769 28.4519 10.489 28.7612 11.2357 28.7612C11.993 28.7612 12.5744 28.4519 12.9797 27.8332C13.3957 27.2039 13.6037 26.2919 13.6037 25.0972ZM21.3607 19.6892C22.0007 19.6892 22.582 19.8012 23.1047 20.0252C23.638 20.2386 24.0914 20.5692 24.4647 21.0172C25.2754 21.9666 25.6807 23.3266 25.6807 25.0972C25.6807 26.8679 25.2754 28.2279 24.4647 29.1772C23.718 30.0626 22.6887 30.5053 21.3767 30.5053C20.054 30.5053 19.014 30.0626 18.2567 29.1772C17.4567 28.2492 17.0567 26.8892 17.0567 25.0972C17.0567 23.3052 17.4567 21.9452 18.2567 21.0172C19.014 20.1319 20.0487 19.6892 21.3607 19.6892ZM23.7287 25.0972C23.7287 23.9026 23.5207 22.9906 23.1047 22.3612C22.6994 21.7212 22.118 21.4012 21.3607 21.4012C20.614 21.4012 20.0327 21.7212 19.6167 22.3612C19.2114 22.9906 19.0087 23.9026 19.0087 25.0972C19.0087 26.2919 19.2114 27.2039 19.6167 27.8332C20.0327 28.4519 20.614 28.7612 21.3607 28.7612C22.118 28.7612 22.6994 28.4519 23.1047 27.8332C23.5207 27.2039 23.7287 26.2919 23.7287 25.0972ZM31.4857 19.6892C32.1257 19.6892 32.707 19.8012 33.2297 20.0252C33.763 20.2386 34.2164 20.5692 34.5897 21.0172C35.4004 21.9666 35.8057 23.3266 35.8057 25.0972C35.8057 26.8679 35.4004 28.2279 34.5897 29.1772C33.843 30.0626 32.8137 30.5053 31.5017 30.5053C30.179 30.5053 29.139 30.0626 28.3817 29.1772C27.5817 28.2492 27.1817 26.8892 27.1817 25.0972C27.1817 23.3052 27.5817 21.9452 28.3817 21.0172C29.139 20.1319 30.1737 19.6892 31.4857 19.6892ZM33.8537 25.0972C33.8537 23.9026 33.6457 22.9906 33.2297 22.3612C32.8244 21.7212 32.243 21.4012 31.4857 21.4012C30.739 21.4012 30.1577 21.7212 29.7417 22.3612C29.3364 22.9906 29.1337 23.9026 29.1337 25.0972C29.1337 26.2919 29.3364 27.2039 29.7417 27.8332C30.1577 28.4519 30.739 28.7612 31.4857 28.7612C32.243 28.7612 32.8244 28.4519 33.2297 27.8332C33.6457 27.2039 33.8537 26.2919 33.8537 25.0972ZM38.4107 30.3613C38.112 30.3079 37.856 30.1906 37.6427 30.0092C37.44 29.8172 37.3387 29.5666 37.3387 29.2572C37.3387 28.9372 37.4614 28.6652 37.7067 28.4412C37.952 28.2172 38.288 28.1052 38.7147 28.1052C39.1414 28.1052 39.488 28.2706 39.7547 28.6012C40.0214 28.9319 40.1547 29.3372 40.1547 29.8172C40.1547 30.5959 39.8027 31.3053 39.0987 31.9453C38.8747 32.1479 38.624 32.3186 38.3467 32.4573L36.9387 31.7533C37.2907 31.5719 37.6 31.3693 37.8667 31.1453C38.144 30.9213 38.3254 30.6599 38.4107 30.3613ZM45.6576 19.6892C46.2976 19.6892 46.8789 19.8012 47.4016 20.0252C47.9349 20.2386 48.3882 20.5692 48.7616 21.0172C49.5722 21.9666 49.9776 23.3266 49.9776 25.0972C49.9776 26.8679 49.5722 28.2279 48.7616 29.1772C48.0149 30.0626 46.9856 30.5053 45.6736 30.5053C44.3509 30.5053 43.3109 30.0626 42.5536 29.1772C41.7536 28.2492 41.3536 26.8892 41.3536 25.0972C41.3536 23.3052 41.7536 21.9452 42.5536 21.0172C43.3109 20.1319 44.3456 19.6892 45.6576 19.6892ZM48.0256 25.0972C48.0256 23.9026 47.8176 22.9906 47.4016 22.3612C46.9962 21.7212 46.4149 21.4012 45.6576 21.4012C44.9109 21.4012 44.3296 21.7212 43.9136 22.3612C43.5082 22.9906 43.3056 23.9026 43.3056 25.0972C43.3056 26.2919 43.5082 27.2039 43.9136 27.8332C44.3296 28.4519 44.9109 28.7612 45.6576 28.7612C46.4149 28.7612 46.9962 28.4519 47.4016 27.8332C47.8176 27.2039 48.0256 26.2919 48.0256 25.0972ZM55.7826 19.6892C56.4226 19.6892 57.0039 19.8012 57.5266 20.0252C58.0599 20.2386 58.5132 20.5692 58.8866 21.0172C59.6972 21.9666 60.1026 23.3266 60.1026 25.0972C60.1026 26.8679 59.6972 28.2279 58.8866 29.1772C58.1399 30.0626 57.1106 30.5053 55.7986 30.5053C54.4759 30.5053 53.4359 30.0626 52.6786 29.1772C51.8786 28.2492 51.4786 26.8892 51.4786 25.0972C51.4786 23.3052 51.8786 21.9452 52.6786 21.0172C53.4359 20.1319 54.4706 19.6892 55.7826 19.6892ZM58.1506 25.0972C58.1506 23.9026 57.9426 22.9906 57.5266 22.3612C57.1212 21.7212 56.5399 21.4012 55.7826 21.4012C55.0359 21.4012 54.4546 21.7212 54.0386 22.3612C53.6332 22.9906 53.4306 23.9026 53.4306 25.0972C53.4306 26.2919 53.6332 27.2039 54.0386 27.8332C54.4546 28.4519 55.0359 28.7612 55.7826 28.7612C56.5399 28.7612 57.1212 28.4519 57.5266 27.8332C57.9426 27.2039 58.1506 26.2919 58.1506 25.0972ZM65.9076 19.6892C66.5476 19.6892 67.1289 19.8012 67.6516 20.0252C68.1849 20.2386 68.6382 20.5692 69.0116 21.0172C69.8222 21.9666 70.2276 23.3266 70.2276 25.0972C70.2276 26.8679 69.8222 28.2279 69.0116 29.1772C68.2649 30.0626 67.2356 30.5053 65.9236 30.5053C64.6009 30.5053 63.5609 30.0626 62.8036 29.1772C62.0036 28.2492 61.6036 26.8892 61.6036 25.0972C61.6036 23.3052 62.0036 21.9452 62.8036 21.0172C63.5609 20.1319 64.5956 19.6892 65.9076 19.6892ZM68.2756 25.0972C68.2756 23.9026 68.0676 22.9906 67.6516 22.3612C67.2462 21.7212 66.6649 21.4012 65.9076 21.4012C65.1609 21.4012 64.5796 21.7212 64.1636 22.3612C63.7582 22.9906 63.5556 23.9026 63.5556 25.0972C63.5556 26.2919 63.7582 27.2039 64.1636 27.8332C64.5796 28.4519 65.1609 28.7612 65.9076 28.7612C66.6649 28.7612 67.2462 28.4519 67.6516 27.8332C68.0676 27.2039 68.2756 26.2919 68.2756 25.0972Z" fill="#FDFDFD"/>
<path d="M228.315 4.60006H234.507V5.68806H229.579V9.06406H234.219V10.1361H229.579V13.5601H234.507V14.6641H228.315V4.60006ZM243.459 14.6641H241.923L239.731 11.7681L237.651 14.6641H236.115L239.011 10.8401L236.115 7.00006H237.651L239.843 9.88006L241.939 7.00006H243.475L240.547 10.8401L243.459 14.6641ZM246.687 8.18406C247.188 7.2774 247.935 6.82406 248.927 6.82406C249.929 6.82406 250.761 7.19206 251.423 7.92806C252.095 8.66406 252.431 9.63473 252.431 10.8401C252.431 12.0454 252.095 13.0161 251.423 13.7521C250.751 14.4774 249.924 14.8401 248.943 14.8401C247.961 14.8401 247.236 14.4721 246.767 13.7361V18.4241H245.503V7.01606H246.543L246.687 8.18406ZM248.879 13.7201C249.476 13.7201 249.999 13.4641 250.447 12.9521C250.905 12.4401 251.135 11.7414 251.135 10.8561C251.135 9.96006 250.916 9.25073 250.479 8.72806C250.052 8.2054 249.529 7.94406 248.911 7.94406C248.292 7.94406 247.785 8.1414 247.391 8.53606C246.996 8.92006 246.788 9.44273 246.767 10.1041V11.5601C246.767 12.2321 246.969 12.7601 247.375 13.1441C247.78 13.5281 248.281 13.7201 248.879 13.7201ZM257.643 13.8161C258.699 13.8161 259.301 13.3521 259.451 12.4241H260.747C260.629 13.1921 260.288 13.7894 259.723 14.2161C259.168 14.6321 258.475 14.8401 257.643 14.8401C256.619 14.8401 255.787 14.4774 255.147 13.7521C254.507 13.0161 254.187 12.0401 254.187 10.8241C254.187 9.60806 254.507 8.6374 255.147 7.91206C255.797 7.18673 256.656 6.82406 257.723 6.82406C258.8 6.82406 259.6 7.24006 260.123 8.07206C260.656 8.90406 260.843 9.9174 260.683 11.1121H255.451C255.451 11.9014 255.643 12.5521 256.027 13.0641C256.411 13.5654 256.949 13.8161 257.643 13.8161ZM258.571 8.02406C258.325 7.89606 258.027 7.83206 257.675 7.83206C257.024 7.83206 256.507 8.05606 256.123 8.50406C255.749 8.9414 255.531 9.49073 255.467 10.1521H259.547C259.547 9.0854 259.221 8.37606 258.571 8.02406ZM266.357 8.08806C265.152 8.08806 264.528 9.0374 264.485 10.9361V14.6641H263.221V7.00006H264.485V8.47206C264.869 7.4054 265.546 6.87206 266.517 6.87206C266.826 6.87206 267.12 6.92006 267.397 7.01606L267.333 8.24806C267.013 8.1414 266.688 8.08806 266.357 8.08806ZM269.411 7.00006H270.675V14.6641H269.411V7.00006ZM270.035 5.20806C269.779 5.20806 269.576 5.13873 269.427 5.00006C269.288 4.85073 269.219 4.65873 269.219 4.42406C269.219 4.17873 269.288 3.98673 269.427 3.84806C269.576 3.69873 269.779 3.62406 270.035 3.62406C270.291 3.62406 270.494 3.69873 270.643 3.84806C270.803 3.98673 270.883 4.17873 270.883 4.42406C270.883 4.65873 270.803 4.85073 270.643 5.00006C270.494 5.13873 270.291 5.20806 270.035 5.20806ZM276.752 13.8161C277.808 13.8161 278.411 13.3521 278.56 12.4241H279.856C279.739 13.1921 279.397 13.7894 278.832 14.2161C278.277 14.6321 277.584 14.8401 276.752 14.8401C275.728 14.8401 274.896 14.4774 274.256 13.7521C273.616 13.0161 273.296 12.0401 273.296 10.8241C273.296 9.60806 273.616 8.6374 274.256 7.91206C274.907 7.18673 275.765 6.82406 276.832 6.82406C277.909 6.82406 278.709 7.24006 279.232 8.07206C279.765 8.90406 279.952 9.9174 279.792 11.1121H274.56C274.56 11.9014 274.752 12.5521 275.136 13.0641C275.52 13.5654 276.059 13.8161 276.752 13.8161ZM277.68 8.02406C277.435 7.89606 277.136 7.83206 276.784 7.83206C276.133 7.83206 275.616 8.05606 275.232 8.50406C274.859 8.9414 274.64 9.49073 274.576 10.1521H278.656C278.656 9.0854 278.331 8.37606 277.68 8.02406ZM283.562 8.48806C284.064 7.37873 284.922 6.82406 286.138 6.82406C287.045 6.82406 287.749 7.12273 288.25 7.72006C288.762 8.3174 289.018 9.1334 289.018 10.1681V14.6641H287.77V10.1681C287.77 9.43206 287.594 8.8774 287.242 8.50406C286.901 8.13073 286.41 7.94406 285.77 7.94406C285.13 7.94406 284.613 8.2054 284.218 8.72806C283.824 9.25073 283.616 9.97606 283.594 10.9041V14.6641H282.33V7.01606H283.418L283.562 8.48806ZM294.531 6.82406C295.438 6.82406 296.158 7.05873 296.691 7.52806C297.224 7.98673 297.571 8.56273 297.731 9.25606L296.451 9.36806C296.312 8.92006 296.088 8.5734 295.779 8.32806C295.47 8.07206 295.128 7.94406 294.755 7.94406C294.072 7.94406 293.518 8.20006 293.091 8.71206C292.675 9.22406 292.467 9.92273 292.467 10.8081C292.467 11.6827 292.67 12.3867 293.075 12.9201C293.491 13.4534 294.003 13.7201 294.611 13.7201C295.23 13.7201 295.688 13.5814 295.987 13.3041C296.296 13.0161 296.451 12.6107 296.451 12.0881H297.747C297.747 12.9094 297.459 13.5761 296.883 14.0881C296.318 14.5894 295.576 14.8401 294.659 14.8401C293.688 14.8401 292.862 14.4721 292.179 13.7361C291.507 13.0001 291.171 12.0241 291.171 10.8081C291.171 9.5814 291.507 8.61073 292.179 7.89606C292.851 7.1814 293.635 6.82406 294.531 6.82406ZM302.861 13.8161C303.917 13.8161 304.52 13.3521 304.669 12.4241H305.965C305.848 13.1921 305.507 13.7894 304.941 14.2161C304.387 14.6321 303.693 14.8401 302.861 14.8401C301.837 14.8401 301.005 14.4774 300.365 13.7521C299.725 13.0161 299.405 12.0401 299.405 10.8241C299.405 9.60806 299.725 8.6374 300.365 7.91206C301.016 7.18673 301.875 6.82406 302.941 6.82406C304.019 6.82406 304.819 7.24006 305.341 8.07206C305.875 8.90406 306.061 9.9174 305.901 11.1121H300.669C300.669 11.9014 300.861 12.5521 301.245 13.0641C301.629 13.5654 302.168 13.8161 302.861 13.8161ZM303.789 8.02406C303.544 7.89606 303.245 7.83206 302.893 7.83206C302.243 7.83206 301.725 8.05606 301.341 8.50406C300.968 8.9414 300.749 9.49073 300.685 10.1521H304.765C304.765 9.0854 304.44 8.37606 303.789 8.02406Z" fill="#FDFDFD"/>
<rect x="226.715" y="36.3281" width="168.397" height="7.05474" rx="3.52737" fill="#F6F7F9"/>
<rect x="226.715" y="36.3281" width="138.783" height="7.05474" rx="3.52737" fill="#F5DB13"/>
<path d="M227.387 20.6812C228.187 20.5639 228.891 20.2812 229.499 19.8332H230.923V30.2812H229.035V22.0892C228.491 22.3559 227.942 22.4892 227.387 22.4892V20.6812ZM237.49 19.6892C238.13 19.6892 238.711 19.8012 239.234 20.0252C239.767 20.2386 240.22 20.5692 240.594 21.0172C241.404 21.9666 241.81 23.3266 241.81 25.0972C241.81 26.8679 241.404 28.2279 240.594 29.1772C239.847 30.0626 238.818 30.5053 237.506 30.5053C236.183 30.5053 235.143 30.0626 234.386 29.1772C233.586 28.2492 233.186 26.8892 233.186 25.0972C233.186 23.3052 233.586 21.9452 234.386 21.0172C235.143 20.1319 236.178 19.6892 237.49 19.6892ZM239.858 25.0972C239.858 23.9026 239.65 22.9906 239.234 22.3612C238.828 21.7212 238.247 21.4012 237.49 21.4012C236.743 21.4012 236.162 21.7212 235.746 22.3612C235.34 22.9906 235.138 23.9026 235.138 25.0972C235.138 26.2919 235.34 27.2039 235.746 27.8332C236.162 28.4519 236.743 28.7612 237.49 28.7612C238.247 28.7612 238.828 28.4519 239.234 27.8332C239.65 27.2039 239.858 26.2919 239.858 25.0972ZM247.615 19.6892C248.255 19.6892 248.836 19.8012 249.359 20.0252C249.892 20.2386 250.345 20.5692 250.719 21.0172C251.529 21.9666 251.935 23.3266 251.935 25.0972C251.935 26.8679 251.529 28.2279 250.719 29.1772C249.972 30.0626 248.943 30.5053 247.631 30.5053C246.308 30.5053 245.268 30.0626 244.511 29.1772C243.711 28.2492 243.311 26.8892 243.311 25.0972C243.311 23.3052 243.711 21.9452 244.511 21.0172C245.268 20.1319 246.303 19.6892 247.615 19.6892ZM249.983 25.0972C249.983 23.9026 249.775 22.9906 249.359 22.3612C248.953 21.7212 248.372 21.4012 247.615 21.4012C246.868 21.4012 246.287 21.7212 245.871 22.3612C245.465 22.9906 245.263 23.9026 245.263 25.0972C245.263 26.2919 245.465 27.2039 245.871 27.8332C246.287 28.4519 246.868 28.7612 247.615 28.7612C248.372 28.7612 248.953 28.4519 249.359 27.8332C249.775 27.2039 249.983 26.2919 249.983 25.0972ZM257.74 19.6892C258.38 19.6892 258.961 19.8012 259.484 20.0252C260.017 20.2386 260.47 20.5692 260.844 21.0172C261.654 21.9666 262.06 23.3266 262.06 25.0972C262.06 26.8679 261.654 28.2279 260.844 29.1772C260.097 30.0626 259.068 30.5053 257.756 30.5053C256.433 30.5053 255.393 30.0626 254.636 29.1772C253.836 28.2492 253.436 26.8892 253.436 25.0972C253.436 23.3052 253.836 21.9452 254.636 21.0172C255.393 20.1319 256.428 19.6892 257.74 19.6892ZM260.108 25.0972C260.108 23.9026 259.9 22.9906 259.484 22.3612C259.078 21.7212 258.497 21.4012 257.74 21.4012C256.993 21.4012 256.412 21.7212 255.996 22.3612C255.59 22.9906 255.388 23.9026 255.388 25.0972C255.388 26.2919 255.59 27.2039 255.996 27.8332C256.412 28.4519 256.993 28.7612 257.74 28.7612C258.497 28.7612 259.078 28.4519 259.484 27.8332C259.9 27.2039 260.108 26.2919 260.108 25.0972ZM264.665 30.3613C264.366 30.3079 264.11 30.1906 263.897 30.0092C263.694 29.8172 263.593 29.5666 263.593 29.2572C263.593 28.9372 263.715 28.6652 263.961 28.4412C264.206 28.2172 264.542 28.1052 264.969 28.1052C265.395 28.1052 265.742 28.2706 266.009 28.6012C266.275 28.9319 266.409 29.3372 266.409 29.8172C266.409 30.5959 266.057 31.3053 265.353 31.9453C265.129 32.1479 264.878 32.3186 264.601 32.4573L263.193 31.7533C263.545 31.5719 263.854 31.3693 264.121 31.1453C264.398 30.9213 264.579 30.6599 264.665 30.3613ZM271.911 19.6892C272.551 19.6892 273.133 19.8012 273.655 20.0252C274.189 20.2386 274.642 20.5692 275.015 21.0172C275.826 21.9666 276.231 23.3266 276.231 25.0972C276.231 26.8679 275.826 28.2279 275.015 29.1772C274.269 30.0626 273.239 30.5053 271.927 30.5053C270.605 30.5053 269.565 30.0626 268.807 29.1772C268.007 28.2492 267.607 26.8892 267.607 25.0972C267.607 23.3052 268.007 21.9452 268.807 21.0172C269.565 20.1319 270.599 19.6892 271.911 19.6892ZM274.279 25.0972C274.279 23.9026 274.071 22.9906 273.655 22.3612C273.25 21.7212 272.669 21.4012 271.911 21.4012C271.165 21.4012 270.583 21.7212 270.167 22.3612C269.762 22.9906 269.559 23.9026 269.559 25.0972C269.559 26.2919 269.762 27.2039 270.167 27.8332C270.583 28.4519 271.165 28.7612 271.911 28.7612C272.669 28.7612 273.25 28.4519 273.655 27.8332C274.071 27.2039 274.279 26.2919 274.279 25.0972ZM282.036 19.6892C282.676 19.6892 283.258 19.8012 283.78 20.0252C284.314 20.2386 284.767 20.5692 285.14 21.0172C285.951 21.9666 286.356 23.3266 286.356 25.0972C286.356 26.8679 285.951 28.2279 285.14 29.1772C284.394 30.0626 283.364 30.5053 282.052 30.5053C280.73 30.5053 279.69 30.0626 278.932 29.1772C278.132 28.2492 277.732 26.8892 277.732 25.0972C277.732 23.3052 278.132 21.9452 278.932 21.0172C279.69 20.1319 280.724 19.6892 282.036 19.6892ZM284.404 25.0972C284.404 23.9026 284.196 22.9906 283.78 22.3612C283.375 21.7212 282.794 21.4012 282.036 21.4012C281.29 21.4012 280.708 21.7212 280.292 22.3612C279.887 22.9906 279.684 23.9026 279.684 25.0972C279.684 26.2919 279.887 27.2039 280.292 27.8332C280.708 28.4519 281.29 28.7612 282.036 28.7612C282.794 28.7612 283.375 28.4519 283.78 27.8332C284.196 27.2039 284.404 26.2919 284.404 25.0972ZM292.161 19.6892C292.801 19.6892 293.383 19.8012 293.905 20.0252C294.439 20.2386 294.892 20.5692 295.265 21.0172C296.076 21.9666 296.481 23.3266 296.481 25.0972C296.481 26.8679 296.076 28.2279 295.265 29.1772C294.519 30.0626 293.489 30.5053 292.177 30.5053C290.855 30.5053 289.815 30.0626 289.057 29.1772C288.257 28.2492 287.857 26.8892 287.857 25.0972C287.857 23.3052 288.257 21.9452 289.057 21.0172C289.815 20.1319 290.849 19.6892 292.161 19.6892ZM294.529 25.0972C294.529 23.9026 294.321 22.9906 293.905 22.3612C293.5 21.7212 292.919 21.4012 292.161 21.4012C291.415 21.4012 290.833 21.7212 290.417 22.3612C290.012 22.9906 289.809 23.9026 289.809 25.0972C289.809 26.2919 290.012 27.2039 290.417 27.8332C290.833 28.4519 291.415 28.7612 292.161 28.7612C292.919 28.7612 293.5 28.4519 293.905 27.8332C294.321 27.2039 294.529 26.2919 294.529 25.0972Z" fill="#FDFDFD"/>
<path d="M4.33294 76.5688H5.86894L9.24494 86.6328H7.93294L7.06894 84.0728H3.06894L2.20494 86.6328H0.876938L4.33294 76.5688ZM3.40494 83.0808H6.74894L5.08494 78.1208L3.40494 83.0808ZM15.2801 86.4088C14.3627 86.8355 13.5254 86.9261 12.7681 86.6808C12.2241 86.5101 11.8401 86.1528 11.6161 85.6088C11.4987 85.3421 11.4401 85.0221 11.4401 84.6488V79.9448H10.2081V78.9848H11.4401V76.8568H12.6881V78.9848H15.0881V79.9448H12.6881V84.6328C12.6881 85.4115 13.0507 85.8008 13.7761 85.8008C14.1707 85.8008 14.6134 85.7048 15.1041 85.5128L15.2801 86.4088ZM21.2957 86.4088C20.3784 86.8355 19.541 86.9261 18.7837 86.6808C18.2397 86.5101 17.8557 86.1528 17.6317 85.6088C17.5144 85.3421 17.4557 85.0221 17.4557 84.6488V79.9448H16.2237V78.9848H17.4557V76.8568H18.7037V78.9848H21.1037V79.9448H18.7037V84.6328C18.7037 85.4115 19.0664 85.8008 19.7917 85.8008C20.1864 85.8008 20.629 85.7048 21.1197 85.5128L21.2957 86.4088ZM28.0473 81.6728C28.0473 80.9795 27.9033 80.4835 27.6153 80.1848C27.3273 79.8861 26.906 79.7368 26.3513 79.7368C25.8073 79.7368 25.3646 79.8488 25.0233 80.0728C24.6926 80.2861 24.5273 80.6275 24.5273 81.0968H23.1353C23.1353 79.9235 23.7646 79.1981 25.0233 78.9208C25.4073 78.8355 25.8233 78.7928 26.2713 78.7928C27.2206 78.7928 27.962 79.0328 28.4953 79.5128C29.0286 79.9928 29.2953 80.7235 29.2953 81.7048V86.6328H28.2073L28.0793 85.3528C27.61 86.3235 26.762 86.8088 25.5353 86.8088C24.714 86.8088 24.0526 86.5795 23.5513 86.1208C23.0606 85.6621 22.8153 85.0915 22.8153 84.4088C22.8153 83.7261 23.0873 83.1928 23.6313 82.8088C24.186 82.4248 24.874 82.2328 25.6953 82.2328C26.5166 82.2328 27.3006 82.3715 28.0473 82.6488V81.6728ZM28.0473 83.4488C27.29 83.2355 26.6286 83.1288 26.0633 83.1288C25.498 83.1288 25.0393 83.2301 24.6873 83.4328C24.3353 83.6355 24.1593 83.9555 24.1593 84.3928C24.1593 85.3528 24.7033 85.8328 25.7913 85.8328C26.41 85.8328 26.938 85.6141 27.3753 85.1768C27.8233 84.7288 28.0473 84.1528 28.0473 83.4488ZM34.8084 78.7928C35.7151 78.7928 36.4351 79.0275 36.9684 79.4968C37.5018 79.9555 37.8484 80.5315 38.0084 81.2248L36.7284 81.3368C36.5898 80.8888 36.3658 80.5421 36.0564 80.2968C35.7471 80.0408 35.4058 79.9128 35.0324 79.9128C34.3498 79.9128 33.7951 80.1688 33.3684 80.6808C32.9524 81.1928 32.7444 81.8915 32.7444 82.7768C32.7444 83.6515 32.9471 84.3555 33.3524 84.8888C33.7684 85.4221 34.2804 85.6888 34.8884 85.6888C35.5071 85.6888 35.9658 85.5501 36.2644 85.2728C36.5738 84.9848 36.7284 84.5795 36.7284 84.0568H38.0244C38.0244 84.8781 37.7364 85.5448 37.1604 86.0568C36.5951 86.5581 35.8538 86.8088 34.9364 86.8088C33.9658 86.8088 33.1391 86.4408 32.4564 85.7048C31.7844 84.9688 31.4484 83.9928 31.4484 82.7768C31.4484 81.5501 31.7844 80.5795 32.4564 79.8648C33.1284 79.1501 33.9124 78.7928 34.8084 78.7928ZM42.7868 82.5848L41.7628 83.4168V86.6328H40.4988V75.7368H41.7628V82.0728L45.4588 78.9848H47.2188L43.6988 81.8488L47.3948 86.6328H45.8428L42.7868 82.5848Z" fill="#FDFDFD"/>
<rect x="0.460938" y="108.297" width="168.397" height="7.05474" rx="3.52737" fill="#F6F7F9"/>
<rect x="0.460938" y="108.297" width="138.783" height="7.05474" rx="3.52737" fill="#F5DB13"/>
<path d="M1.13294 92.65C1.93294 92.5327 2.63694 92.25 3.24494 91.802H4.66894V102.25H2.78094V94.058C2.23694 94.3247 1.6876 94.458 1.13294 94.458V92.65ZM11.2357 91.658C11.8757 91.658 12.457 91.77 12.9797 91.994C13.513 92.2073 13.9664 92.538 14.3397 92.986C15.1504 93.9353 15.5557 95.2953 15.5557 97.066C15.5557 98.8367 15.1504 100.197 14.3397 101.146C13.593 102.031 12.5637 102.474 11.2517 102.474C9.92902 102.474 8.88902 102.031 8.13169 101.146C7.33169 100.218 6.93169 98.858 6.93169 97.066C6.93169 95.274 7.33169 93.914 8.13169 92.986C8.88902 92.1007 9.92369 91.658 11.2357 91.658ZM13.6037 97.066C13.6037 95.8713 13.3957 94.9593 12.9797 94.33C12.5744 93.69 11.993 93.37 11.2357 93.37C10.489 93.37 9.90769 93.69 9.49169 94.33C9.08635 94.9593 8.88369 95.8713 8.88369 97.066C8.88369 98.2607 9.08635 99.1727 9.49169 99.802C9.90769 100.421 10.489 100.73 11.2357 100.73C11.993 100.73 12.5744 100.421 12.9797 99.802C13.3957 99.1727 13.6037 98.2607 13.6037 97.066ZM21.3607 91.658C22.0007 91.658 22.582 91.77 23.1047 91.994C23.638 92.2073 24.0914 92.538 24.4647 92.986C25.2754 93.9353 25.6807 95.2953 25.6807 97.066C25.6807 98.8367 25.2754 100.197 24.4647 101.146C23.718 102.031 22.6887 102.474 21.3767 102.474C20.054 102.474 19.014 102.031 18.2567 101.146C17.4567 100.218 17.0567 98.858 17.0567 97.066C17.0567 95.274 17.4567 93.914 18.2567 92.986C19.014 92.1007 20.0487 91.658 21.3607 91.658ZM23.7287 97.066C23.7287 95.8713 23.5207 94.9593 23.1047 94.33C22.6994 93.69 22.118 93.37 21.3607 93.37C20.614 93.37 20.0327 93.69 19.6167 94.33C19.2114 94.9593 19.0087 95.8713 19.0087 97.066C19.0087 98.2607 19.2114 99.1727 19.6167 99.802C20.0327 100.421 20.614 100.73 21.3607 100.73C22.118 100.73 22.6994 100.421 23.1047 99.802C23.5207 99.1727 23.7287 98.2607 23.7287 97.066ZM31.4857 91.658C32.1257 91.658 32.707 91.77 33.2297 91.994C33.763 92.2073 34.2164 92.538 34.5897 92.986C35.4004 93.9353 35.8057 95.2953 35.8057 97.066C35.8057 98.8367 35.4004 100.197 34.5897 101.146C33.843 102.031 32.8137 102.474 31.5017 102.474C30.179 102.474 29.139 102.031 28.3817 101.146C27.5817 100.218 27.1817 98.858 27.1817 97.066C27.1817 95.274 27.5817 93.914 28.3817 92.986C29.139 92.1007 30.1737 91.658 31.4857 91.658ZM33.8537 97.066C33.8537 95.8713 33.6457 94.9593 33.2297 94.33C32.8244 93.69 32.243 93.37 31.4857 93.37C30.739 93.37 30.1577 93.69 29.7417 94.33C29.3364 94.9593 29.1337 95.8713 29.1337 97.066C29.1337 98.2607 29.3364 99.1727 29.7417 99.802C30.1577 100.421 30.739 100.73 31.4857 100.73C32.243 100.73 32.8244 100.421 33.2297 99.802C33.6457 99.1727 33.8537 98.2607 33.8537 97.066ZM38.4107 102.33C38.112 102.277 37.856 102.159 37.6427 101.978C37.44 101.786 37.3387 101.535 37.3387 101.226C37.3387 100.906 37.4614 100.634 37.7067 100.41C37.952 100.186 38.288 100.074 38.7147 100.074C39.1414 100.074 39.488 100.239 39.7547 100.57C40.0214 100.901 40.1547 101.306 40.1547 101.786C40.1547 102.565 39.8027 103.274 39.0987 103.914C38.8747 104.117 38.624 104.287 38.3467 104.426L36.9387 103.722C37.2907 103.541 37.6 103.338 37.8667 103.114C38.144 102.89 38.3254 102.629 38.4107 102.33ZM45.6576 91.658C46.2976 91.658 46.8789 91.77 47.4016 91.994C47.9349 92.2073 48.3882 92.538 48.7616 92.986C49.5722 93.9353 49.9776 95.2953 49.9776 97.066C49.9776 98.8367 49.5722 100.197 48.7616 101.146C48.0149 102.031 46.9856 102.474 45.6736 102.474C44.3509 102.474 43.3109 102.031 42.5536 101.146C41.7536 100.218 41.3536 98.858 41.3536 97.066C41.3536 95.274 41.7536 93.914 42.5536 92.986C43.3109 92.1007 44.3456 91.658 45.6576 91.658ZM48.0256 97.066C48.0256 95.8713 47.8176 94.9593 47.4016 94.33C46.9962 93.69 46.4149 93.37 45.6576 93.37C44.9109 93.37 44.3296 93.69 43.9136 94.33C43.5082 94.9593 43.3056 95.8713 43.3056 97.066C43.3056 98.2607 43.5082 99.1727 43.9136 99.802C44.3296 100.421 44.9109 100.73 45.6576 100.73C46.4149 100.73 46.9962 100.421 47.4016 99.802C47.8176 99.1727 48.0256 98.2607 48.0256 97.066ZM55.7826 91.658C56.4226 91.658 57.0039 91.77 57.5266 91.994C58.0599 92.2073 58.5132 92.538 58.8866 92.986C59.6972 93.9353 60.1026 95.2953 60.1026 97.066C60.1026 98.8367 59.6972 100.197 58.8866 101.146C58.1399 102.031 57.1106 102.474 55.7986 102.474C54.4759 102.474 53.4359 102.031 52.6786 101.146C51.8786 100.218 51.4786 98.858 51.4786 97.066C51.4786 95.274 51.8786 93.914 52.6786 92.986C53.4359 92.1007 54.4706 91.658 55.7826 91.658ZM58.1506 97.066C58.1506 95.8713 57.9426 94.9593 57.5266 94.33C57.1212 93.69 56.5399 93.37 55.7826 93.37C55.0359 93.37 54.4546 93.69 54.0386 94.33C53.6332 94.9593 53.4306 95.8713 53.4306 97.066C53.4306 98.2607 53.6332 99.1727 54.0386 99.802C54.4546 100.421 55.0359 100.73 55.7826 100.73C56.5399 100.73 57.1212 100.421 57.5266 99.802C57.9426 99.1727 58.1506 98.2607 58.1506 97.066ZM65.9076 91.658C66.5476 91.658 67.1289 91.77 67.6516 91.994C68.1849 92.2073 68.6382 92.538 69.0116 92.986C69.8222 93.9353 70.2276 95.2953 70.2276 97.066C70.2276 98.8367 69.8222 100.197 69.0116 101.146C68.2649 102.031 67.2356 102.474 65.9236 102.474C64.6009 102.474 63.5609 102.031 62.8036 101.146C62.0036 100.218 61.6036 98.858 61.6036 97.066C61.6036 95.274 62.0036 93.914 62.8036 92.986C63.5609 92.1007 64.5956 91.658 65.9076 91.658ZM68.2756 97.066C68.2756 95.8713 68.0676 94.9593 67.6516 94.33C67.2462 93.69 66.6649 93.37 65.9076 93.37C65.1609 93.37 64.5796 93.69 64.1636 94.33C63.7582 94.9593 63.5556 95.8713 63.5556 97.066C63.5556 98.2607 63.7582 99.1727 64.1636 99.802C64.5796 100.421 65.1609 100.73 65.9076 100.73C66.6649 100.73 67.2462 100.421 67.6516 99.802C68.0676 99.1727 68.2756 98.2607 68.2756 97.066Z" fill="#FDFDFD"/>
<path d="M231.275 76.5688C232.79 76.5688 234 77.0275 234.907 77.9448C235.824 78.8515 236.283 80.0728 236.283 81.6088C236.283 83.1341 235.824 84.3555 234.907 85.2728C234 86.1795 232.79 86.6328 231.275 86.6328H228.315V76.5688H231.275ZM229.579 85.5288H231.275C232.395 85.5288 233.286 85.1608 233.947 84.4248C234.608 83.6781 234.939 82.7341 234.939 81.5928C234.939 80.4515 234.603 79.5181 233.931 78.7928C233.27 78.0568 232.384 77.6888 231.275 77.6888H229.579V85.5288ZM241.549 85.7848C242.605 85.7848 243.208 85.3208 243.357 84.3928H244.653C244.536 85.1608 244.194 85.7581 243.629 86.1848C243.074 86.6008 242.381 86.8088 241.549 86.8088C240.525 86.8088 239.693 86.4461 239.053 85.7208C238.413 84.9848 238.093 84.0088 238.093 82.7928C238.093 81.5768 238.413 80.6061 239.053 79.8808C239.704 79.1555 240.562 78.7928 241.629 78.7928C242.706 78.7928 243.506 79.2088 244.029 80.0408C244.562 80.8728 244.749 81.8861 244.589 83.0808H239.357C239.357 83.8701 239.549 84.5208 239.933 85.0328C240.317 85.5341 240.856 85.7848 241.549 85.7848ZM242.477 79.9928C242.232 79.8648 241.933 79.8008 241.581 79.8008C240.93 79.8008 240.413 80.0248 240.029 80.4728C239.656 80.9101 239.437 81.4595 239.373 82.1208H243.453C243.453 81.0541 243.128 80.3448 242.477 79.9928ZM250.855 76.8088C250.503 76.6701 250.226 76.6008 250.023 76.6008C249.65 76.6008 249.357 76.6915 249.143 76.8728C248.93 77.0541 248.823 77.3741 248.823 77.8328V78.9848H250.407V79.8488H248.823V86.6328H247.575V79.8488H246.311V78.9848H247.575V77.8168C247.575 77.0595 247.783 76.5048 248.199 76.1528C248.615 75.7901 249.095 75.6088 249.639 75.6088C250.183 75.6088 250.663 75.6781 251.079 75.8168L250.855 76.8088ZM255.268 85.7848C256.324 85.7848 256.926 85.3208 257.076 84.3928H258.372C258.254 85.1608 257.913 85.7581 257.348 86.1848C256.793 86.6008 256.1 86.8088 255.268 86.8088C254.244 86.8088 253.412 86.4461 252.772 85.7208C252.132 84.9848 251.812 84.0088 251.812 82.7928C251.812 81.5768 252.132 80.6061 252.772 79.8808C253.422 79.1555 254.281 78.7928 255.348 78.7928C256.425 78.7928 257.225 79.2088 257.748 80.0408C258.281 80.8728 258.468 81.8861 258.308 83.0808H253.076C253.076 83.8701 253.268 84.5208 253.652 85.0328C254.036 85.5341 254.574 85.7848 255.268 85.7848ZM256.196 79.9928C255.95 79.8648 255.652 79.8008 255.3 79.8008C254.649 79.8008 254.132 80.0248 253.748 80.4728C253.374 80.9101 253.156 81.4595 253.092 82.1208H257.172C257.172 81.0541 256.846 80.3448 256.196 79.9928ZM262.078 80.4568C262.579 79.3475 263.438 78.7928 264.654 78.7928C265.561 78.7928 266.265 79.0915 266.766 79.6888C267.278 80.2861 267.534 81.1021 267.534 82.1368V86.6328H266.286V82.1368C266.286 81.4008 266.11 80.8461 265.758 80.4728C265.417 80.0995 264.926 79.9128 264.286 79.9128C263.646 79.9128 263.129 80.1741 262.734 80.6968C262.339 81.2195 262.131 81.9448 262.11 82.8728V86.6328H260.846V78.9848H261.934L262.078 80.4568ZM270.103 80.8568C270.103 80.2275 270.369 79.7261 270.903 79.3528C271.447 78.9795 272.177 78.7928 273.095 78.7928C274.012 78.7928 274.727 78.9848 275.239 79.3688C275.761 79.7528 276.033 80.2381 276.055 80.8248H274.823C274.727 80.1315 274.14 79.7848 273.063 79.7848C272.54 79.7848 272.135 79.9021 271.847 80.1368C271.569 80.3715 271.431 80.6275 271.431 80.9048C271.431 81.1715 271.537 81.4008 271.751 81.5928C271.964 81.7741 272.305 81.9341 272.775 82.0728L274.311 82.5848C274.961 82.7875 275.457 83.0488 275.799 83.3688C276.151 83.6781 276.327 84.1101 276.327 84.6648C276.327 85.2088 276.044 85.7048 275.479 86.1528C274.913 86.5901 274.124 86.8088 273.111 86.8088C272.097 86.8088 271.308 86.5848 270.743 86.1368C270.177 85.6781 269.879 85.0915 269.847 84.3768H271.063C271.084 84.8568 271.276 85.2195 271.639 85.4648C272.012 85.6995 272.476 85.8168 273.031 85.8168C273.585 85.8168 274.044 85.6995 274.407 85.4648C274.769 85.2301 274.951 84.9528 274.951 84.6328C274.951 84.3021 274.844 84.0515 274.631 83.8808C274.417 83.7101 274.071 83.5608 273.591 83.4328L272.103 82.9368C270.769 82.5421 270.103 81.8488 270.103 80.8568ZM281.565 85.7848C282.621 85.7848 283.223 85.3208 283.373 84.3928H284.669C284.551 85.1608 284.21 85.7581 283.645 86.1848C283.09 86.6008 282.397 86.8088 281.565 86.8088C280.541 86.8088 279.709 86.4461 279.069 85.7208C278.429 84.9848 278.109 84.0088 278.109 82.7928C278.109 81.5768 278.429 80.6061 279.069 79.8808C279.719 79.1555 280.578 78.7928 281.645 78.7928C282.722 78.7928 283.522 79.2088 284.045 80.0408C284.578 80.8728 284.765 81.8861 284.605 83.0808H279.373C279.373 83.8701 279.565 84.5208 279.949 85.0328C280.333 85.5341 280.871 85.7848 281.565 85.7848ZM282.493 79.9928C282.247 79.8648 281.949 79.8008 281.597 79.8008C280.946 79.8008 280.429 80.0248 280.045 80.4728C279.671 80.9101 279.453 81.4595 279.389 82.1208H283.469C283.469 81.0541 283.143 80.3448 282.493 79.9928Z" fill="#FDFDFD"/>
<rect x="226.715" y="108.297" width="168.397" height="7.05474" rx="3.52737" fill="#F6F7F9"/>
<rect x="226.715" y="108.297" width="138.783" height="7.05474" rx="3.52737" fill="#F5DB13"/>
<path d="M227.387 92.65C228.187 92.5327 228.891 92.25 229.499 91.802H230.923V102.25H229.035V94.058C228.491 94.3247 227.942 94.458 227.387 94.458V92.65ZM237.49 91.658C238.13 91.658 238.711 91.77 239.234 91.994C239.767 92.2073 240.22 92.538 240.594 92.986C241.404 93.9353 241.81 95.2953 241.81 97.066C241.81 98.8367 241.404 100.197 240.594 101.146C239.847 102.031 238.818 102.474 237.506 102.474C236.183 102.474 235.143 102.031 234.386 101.146C233.586 100.218 233.186 98.858 233.186 97.066C233.186 95.274 233.586 93.914 234.386 92.986C235.143 92.1007 236.178 91.658 237.49 91.658ZM239.858 97.066C239.858 95.8713 239.65 94.9593 239.234 94.33C238.828 93.69 238.247 93.37 237.49 93.37C236.743 93.37 236.162 93.69 235.746 94.33C235.34 94.9593 235.138 95.8713 235.138 97.066C235.138 98.2607 235.34 99.1727 235.746 99.802C236.162 100.421 236.743 100.73 237.49 100.73C238.247 100.73 238.828 100.421 239.234 99.802C239.65 99.1727 239.858 98.2607 239.858 97.066ZM247.615 91.658C248.255 91.658 248.836 91.77 249.359 91.994C249.892 92.2073 250.345 92.538 250.719 92.986C251.529 93.9353 251.935 95.2953 251.935 97.066C251.935 98.8367 251.529 100.197 250.719 101.146C249.972 102.031 248.943 102.474 247.631 102.474C246.308 102.474 245.268 102.031 244.511 101.146C243.711 100.218 243.311 98.858 243.311 97.066C243.311 95.274 243.711 93.914 244.511 92.986C245.268 92.1007 246.303 91.658 247.615 91.658ZM249.983 97.066C249.983 95.8713 249.775 94.9593 249.359 94.33C248.953 93.69 248.372 93.37 247.615 93.37C246.868 93.37 246.287 93.69 245.871 94.33C245.465 94.9593 245.263 95.8713 245.263 97.066C245.263 98.2607 245.465 99.1727 245.871 99.802C246.287 100.421 246.868 100.73 247.615 100.73C248.372 100.73 248.953 100.421 249.359 99.802C249.775 99.1727 249.983 98.2607 249.983 97.066ZM257.74 91.658C258.38 91.658 258.961 91.77 259.484 91.994C260.017 92.2073 260.47 92.538 260.844 92.986C261.654 93.9353 262.06 95.2953 262.06 97.066C262.06 98.8367 261.654 100.197 260.844 101.146C260.097 102.031 259.068 102.474 257.756 102.474C256.433 102.474 255.393 102.031 254.636 101.146C253.836 100.218 253.436 98.858 253.436 97.066C253.436 95.274 253.836 93.914 254.636 92.986C255.393 92.1007 256.428 91.658 257.74 91.658ZM260.108 97.066C260.108 95.8713 259.9 94.9593 259.484 94.33C259.078 93.69 258.497 93.37 257.74 93.37C256.993 93.37 256.412 93.69 255.996 94.33C255.59 94.9593 255.388 95.8713 255.388 97.066C255.388 98.2607 255.59 99.1727 255.996 99.802C256.412 100.421 256.993 100.73 257.74 100.73C258.497 100.73 259.078 100.421 259.484 99.802C259.9 99.1727 260.108 98.2607 260.108 97.066ZM264.665 102.33C264.366 102.277 264.11 102.159 263.897 101.978C263.694 101.786 263.593 101.535 263.593 101.226C263.593 100.906 263.715 100.634 263.961 100.41C264.206 100.186 264.542 100.074 264.969 100.074C265.395 100.074 265.742 100.239 266.009 100.57C266.275 100.901 266.409 101.306 266.409 101.786C266.409 102.565 266.057 103.274 265.353 103.914C265.129 104.117 264.878 104.287 264.601 104.426L263.193 103.722C263.545 103.541 263.854 103.338 264.121 103.114C264.398 102.89 264.579 102.629 264.665 102.33ZM271.911 91.658C272.551 91.658 273.133 91.77 273.655 91.994C274.189 92.2073 274.642 92.538 275.015 92.986C275.826 93.9353 276.231 95.2953 276.231 97.066C276.231 98.8367 275.826 100.197 275.015 101.146C274.269 102.031 273.239 102.474 271.927 102.474C270.605 102.474 269.565 102.031 268.807 101.146C268.007 100.218 267.607 98.858 267.607 97.066C267.607 95.274 268.007 93.914 268.807 92.986C269.565 92.1007 270.599 91.658 271.911 91.658ZM274.279 97.066C274.279 95.8713 274.071 94.9593 273.655 94.33C273.25 93.69 272.669 93.37 271.911 93.37C271.165 93.37 270.583 93.69 270.167 94.33C269.762 94.9593 269.559 95.8713 269.559 97.066C269.559 98.2607 269.762 99.1727 270.167 99.802C270.583 100.421 271.165 100.73 271.911 100.73C272.669 100.73 273.25 100.421 273.655 99.802C274.071 99.1727 274.279 98.2607 274.279 97.066ZM282.036 91.658C282.676 91.658 283.258 91.77 283.78 91.994C284.314 92.2073 284.767 92.538 285.14 92.986C285.951 93.9353 286.356 95.2953 286.356 97.066C286.356 98.8367 285.951 100.197 285.14 101.146C284.394 102.031 283.364 102.474 282.052 102.474C280.73 102.474 279.69 102.031 278.932 101.146C278.132 100.218 277.732 98.858 277.732 97.066C277.732 95.274 278.132 93.914 278.932 92.986C279.69 92.1007 280.724 91.658 282.036 91.658ZM284.404 97.066C284.404 95.8713 284.196 94.9593 283.78 94.33C283.375 93.69 282.794 93.37 282.036 93.37C281.29 93.37 280.708 93.69 280.292 94.33C279.887 94.9593 279.684 95.8713 279.684 97.066C279.684 98.2607 279.887 99.1727 280.292 99.802C280.708 100.421 281.29 100.73 282.036 100.73C282.794 100.73 283.375 100.421 283.78 99.802C284.196 99.1727 284.404 98.2607 284.404 97.066ZM292.161 91.658C292.801 91.658 293.383 91.77 293.905 91.994C294.439 92.2073 294.892 92.538 295.265 92.986C296.076 93.9353 296.481 95.2953 296.481 97.066C296.481 98.8367 296.076 100.197 295.265 101.146C294.519 102.031 293.489 102.474 292.177 102.474C290.855 102.474 289.815 102.031 289.057 101.146C288.257 100.218 287.857 98.858 287.857 97.066C287.857 95.274 288.257 93.914 289.057 92.986C289.815 92.1007 290.849 91.658 292.161 91.658ZM294.529 97.066C294.529 95.8713 294.321 94.9593 293.905 94.33C293.5 93.69 292.919 93.37 292.161 93.37C291.415 93.37 290.833 93.69 290.417 94.33C290.012 94.9593 289.809 95.8713 289.809 97.066C289.809 98.2607 290.012 99.1727 290.417 99.802C290.833 100.421 291.415 100.73 292.161 100.73C292.919 100.73 293.5 100.421 293.905 99.802C294.321 99.1727 294.529 98.2607 294.529 97.066Z" fill="#FDFDFD"/>
<path d="M7.43694 161.173C7.2556 160.192 6.5356 159.701 5.27694 159.701C4.60494 159.701 4.0876 159.85 3.72494 160.149C3.36227 160.437 3.18094 160.789 3.18094 161.205C3.18094 161.61 3.29294 161.92 3.51694 162.133C3.74094 162.346 4.1036 162.533 4.60494 162.693L6.70094 163.413C7.4156 163.658 7.98094 163.994 8.39694 164.421C8.8236 164.848 9.03694 165.45 9.03694 166.229C9.03694 166.997 8.70627 167.648 8.04494 168.181C7.3836 168.704 6.49827 168.965 5.38894 168.965C4.2796 168.965 3.3676 168.688 2.65294 168.133C1.94894 167.568 1.58627 166.778 1.56494 165.765H2.79694C2.79694 166.426 3.02627 166.933 3.48494 167.285C3.95427 167.637 4.5516 167.813 5.27694 167.813C6.01294 167.813 6.59427 167.653 7.02094 167.333C7.4476 167.002 7.66094 166.618 7.66094 166.181C7.66094 165.733 7.5276 165.381 7.26094 165.125C7.00494 164.869 6.62094 164.656 6.10894 164.485L4.33294 163.829C3.50094 163.552 2.8716 163.221 2.44494 162.837C2.01827 162.453 1.80494 161.893 1.80494 161.157C1.80494 160.41 2.1036 159.792 2.70094 159.301C3.29827 158.8 4.1356 158.549 5.21294 158.549C6.29027 158.549 7.1116 158.789 7.67694 159.269C8.25294 159.738 8.5836 160.373 8.66894 161.173H7.43694ZM12.9484 162.309C13.4498 161.402 14.1964 160.949 15.1884 160.949C16.1911 160.949 17.0231 161.317 17.6844 162.053C18.3564 162.789 18.6924 163.76 18.6924 164.965C18.6924 166.17 18.3564 167.141 17.6844 167.877C17.0124 168.602 16.1858 168.965 15.2044 168.965C14.2231 168.965 13.4978 168.597 13.0284 167.861V172.549H11.7644V161.141H12.8044L12.9484 162.309ZM15.1404 167.845C15.7378 167.845 16.2604 167.589 16.7084 167.077C17.1671 166.565 17.3964 165.866 17.3964 164.981C17.3964 164.085 17.1778 163.376 16.7404 162.853C16.3138 162.33 15.7911 162.069 15.1724 162.069C14.5538 162.069 14.0471 162.266 13.6524 162.661C13.2578 163.045 13.0498 163.568 13.0284 164.229V165.685C13.0284 166.357 13.2311 166.885 13.6364 167.269C14.0418 167.653 14.5431 167.845 15.1404 167.845ZM23.9044 167.941C24.9604 167.941 25.5631 167.477 25.7124 166.549H27.0084C26.8911 167.317 26.5498 167.914 25.9844 168.341C25.4298 168.757 24.7364 168.965 23.9044 168.965C22.8804 168.965 22.0484 168.602 21.4084 167.877C20.7684 167.141 20.4484 166.165 20.4484 164.949C20.4484 163.733 20.7684 162.762 21.4084 162.037C22.0591 161.312 22.9178 160.949 23.9844 160.949C25.0618 160.949 25.8618 161.365 26.3844 162.197C26.9178 163.029 27.1044 164.042 26.9444 165.237H21.7124C21.7124 166.026 21.9044 166.677 22.2884 167.189C22.6724 167.69 23.2111 167.941 23.9044 167.941ZM24.8324 162.149C24.5871 162.021 24.2884 161.957 23.9364 161.957C23.2858 161.957 22.7684 162.181 22.3844 162.629C22.0111 163.066 21.7924 163.616 21.7284 164.277H25.8084C25.8084 163.21 25.4831 162.501 24.8324 162.149ZM32.0428 160.949C32.9495 160.949 33.6695 161.184 34.2028 161.653C34.7361 162.112 35.0828 162.688 35.2428 163.381L33.9628 163.493C33.8241 163.045 33.6001 162.698 33.2908 162.453C32.9815 162.197 32.6401 162.069 32.2668 162.069C31.5841 162.069 31.0295 162.325 30.6028 162.837C30.1868 163.349 29.9788 164.048 29.9788 164.933C29.9788 165.808 30.1815 166.512 30.5868 167.045C31.0028 167.578 31.5148 167.845 32.1228 167.845C32.7415 167.845 33.2001 167.706 33.4988 167.429C33.8081 167.141 33.9628 166.736 33.9628 166.213H35.2588C35.2588 167.034 34.9708 167.701 34.3948 168.213C33.8295 168.714 33.0881 168.965 32.1708 168.965C31.2001 168.965 30.3735 168.597 29.6908 167.861C29.0188 167.125 28.6828 166.149 28.6828 164.933C28.6828 163.706 29.0188 162.736 29.6908 162.021C30.3628 161.306 31.1468 160.949 32.0428 160.949ZM37.8132 161.125H39.0772V168.789H37.8132V161.125ZM38.4372 159.333C38.1812 159.333 37.9785 159.264 37.8292 159.125C37.6905 158.976 37.6212 158.784 37.6212 158.549C37.6212 158.304 37.6905 158.112 37.8292 157.973C37.9785 157.824 38.1812 157.749 38.4372 157.749C38.6932 157.749 38.8959 157.824 39.0452 157.973C39.2052 158.112 39.2852 158.304 39.2852 158.549C39.2852 158.784 39.2052 158.976 39.0452 159.125C38.8959 159.264 38.6932 159.333 38.4372 159.333ZM47.2504 163.829C47.2504 163.136 47.1064 162.64 46.8184 162.341C46.5304 162.042 46.1091 161.893 45.5544 161.893C45.0104 161.893 44.5678 162.005 44.2264 162.229C43.8958 162.442 43.7304 162.784 43.7304 163.253H42.3384C42.3384 162.08 42.9678 161.354 44.2264 161.077C44.6104 160.992 45.0264 160.949 45.4744 160.949C46.4238 160.949 47.1651 161.189 47.6984 161.669C48.2318 162.149 48.4984 162.88 48.4984 163.861V168.789H47.4104L47.2824 167.509C46.8131 168.48 45.9651 168.965 44.7384 168.965C43.9171 168.965 43.2558 168.736 42.7544 168.277C42.2638 167.818 42.0184 167.248 42.0184 166.565C42.0184 165.882 42.2904 165.349 42.8344 164.965C43.3891 164.581 44.0771 164.389 44.8984 164.389C45.7198 164.389 46.5038 164.528 47.2504 164.805V163.829ZM47.2504 165.605C46.4931 165.392 45.8318 165.285 45.2664 165.285C44.7011 165.285 44.2424 165.386 43.8904 165.589C43.5384 165.792 43.3624 166.112 43.3624 166.549C43.3624 167.509 43.9064 167.989 44.9944 167.989C45.6131 167.989 46.1411 167.77 46.5784 167.333C47.0264 166.885 47.2504 166.309 47.2504 165.605ZM51.4676 157.893H52.7316V168.789H51.4676V157.893ZM62.0204 158.725H63.5564L66.9324 168.789H65.6204L64.7564 166.229H60.7564L59.8924 168.789H58.5644L62.0204 158.725ZM61.0924 165.237H64.4364L62.7724 160.277L61.0924 165.237ZM72.9676 168.565C72.0502 168.992 71.2129 169.082 70.4556 168.837C69.9116 168.666 69.5276 168.309 69.3036 167.765C69.1862 167.498 69.1276 167.178 69.1276 166.805V162.101H67.8956V161.141H69.1276V159.013H70.3756V161.141H72.7756V162.101H70.3756V166.789C70.3756 167.568 70.7382 167.957 71.4636 167.957C71.8582 167.957 72.3009 167.861 72.7916 167.669L72.9676 168.565ZM78.9832 168.565C78.0659 168.992 77.2285 169.082 76.4712 168.837C75.9272 168.666 75.5432 168.309 75.3192 167.765C75.2019 167.498 75.1432 167.178 75.1432 166.805V162.101H73.9112V161.141H75.1432V159.013H76.3912V161.141H78.7912V162.101H76.3912V166.789C76.3912 167.568 76.7539 167.957 77.4792 167.957C77.8739 167.957 78.3165 167.861 78.8072 167.669L78.9832 168.565ZM85.7348 163.829C85.7348 163.136 85.5908 162.64 85.3028 162.341C85.0148 162.042 84.5935 161.893 84.0388 161.893C83.4948 161.893 83.0521 162.005 82.7108 162.229C82.3801 162.442 82.2148 162.784 82.2148 163.253H80.8228C80.8228 162.08 81.4521 161.354 82.7108 161.077C83.0948 160.992 83.5108 160.949 83.9588 160.949C84.9081 160.949 85.6495 161.189 86.1828 161.669C86.7161 162.149 86.9828 162.88 86.9828 163.861V168.789H85.8948L85.7668 167.509C85.2975 168.48 84.4495 168.965 83.2228 168.965C82.4015 168.965 81.7401 168.736 81.2388 168.277C80.7481 167.818 80.5028 167.248 80.5028 166.565C80.5028 165.882 80.7748 165.349 81.3188 164.965C81.8735 164.581 82.5615 164.389 83.3828 164.389C84.2041 164.389 84.9881 164.528 85.7348 164.805V163.829ZM85.7348 165.605C84.9775 165.392 84.3161 165.285 83.7508 165.285C83.1855 165.285 82.7268 165.386 82.3748 165.589C82.0228 165.792 81.8468 166.112 81.8468 166.549C81.8468 167.509 82.3908 167.989 83.4788 167.989C84.0975 167.989 84.6255 167.77 85.0628 167.333C85.5108 166.885 85.7348 166.309 85.7348 165.605ZM92.4959 160.949C93.4026 160.949 94.1226 161.184 94.6559 161.653C95.1893 162.112 95.5359 162.688 95.6959 163.381L94.4159 163.493C94.2773 163.045 94.0533 162.698 93.7439 162.453C93.4346 162.197 93.0933 162.069 92.7199 162.069C92.0373 162.069 91.4826 162.325 91.0559 162.837C90.6399 163.349 90.4319 164.048 90.4319 164.933C90.4319 165.808 90.6346 166.512 91.0399 167.045C91.4559 167.578 91.9679 167.845 92.5759 167.845C93.1946 167.845 93.6533 167.706 93.9519 167.429C94.2613 167.141 94.4159 166.736 94.4159 166.213H95.7119C95.7119 167.034 95.4239 167.701 94.8479 168.213C94.2826 168.714 93.5413 168.965 92.6239 168.965C91.6533 168.965 90.8266 168.597 90.1439 167.861C89.4719 167.125 89.1359 166.149 89.1359 164.933C89.1359 163.706 89.4719 162.736 90.1439 162.021C90.8159 161.306 91.5999 160.949 92.4959 160.949ZM100.474 164.741L99.4503 165.573V168.789H98.1863V157.893H99.4503V164.229L103.146 161.141H104.906L101.386 164.005L105.082 168.789H103.53L100.474 164.741Z" fill="#FDFDFD"/>
<rect x="0.460938" y="190.453" width="168.397" height="7.05474" rx="3.52737" fill="#F6F7F9"/>
<rect x="0.460938" y="190.453" width="138.783" height="7.05474" rx="3.52737" fill="#F5DB13"/>
<path d="M1.13294 174.806C1.93294 174.689 2.63694 174.406 3.24494 173.958H4.66894V184.406H2.78094V176.214C2.23694 176.481 1.6876 176.614 1.13294 176.614V174.806ZM11.2357 173.814C11.8757 173.814 12.457 173.926 12.9797 174.15C13.513 174.364 13.9664 174.694 14.3397 175.142C15.1504 176.092 15.5557 177.452 15.5557 179.222C15.5557 180.993 15.1504 182.353 14.3397 183.302C13.593 184.188 12.5637 184.63 11.2517 184.63C9.92902 184.63 8.88902 184.188 8.13169 183.302C7.33169 182.374 6.93169 181.014 6.93169 179.222C6.93169 177.43 7.33169 176.07 8.13169 175.142C8.88902 174.257 9.92369 173.814 11.2357 173.814ZM13.6037 179.222C13.6037 178.028 13.3957 177.116 12.9797 176.486C12.5744 175.846 11.993 175.526 11.2357 175.526C10.489 175.526 9.90769 175.846 9.49169 176.486C9.08635 177.116 8.88369 178.028 8.88369 179.222C8.88369 180.417 9.08635 181.329 9.49169 181.958C9.90769 182.577 10.489 182.886 11.2357 182.886C11.993 182.886 12.5744 182.577 12.9797 181.958C13.3957 181.329 13.6037 180.417 13.6037 179.222ZM21.3607 173.814C22.0007 173.814 22.582 173.926 23.1047 174.15C23.638 174.364 24.0914 174.694 24.4647 175.142C25.2754 176.092 25.6807 177.452 25.6807 179.222C25.6807 180.993 25.2754 182.353 24.4647 183.302C23.718 184.188 22.6887 184.63 21.3767 184.63C20.054 184.63 19.014 184.188 18.2567 183.302C17.4567 182.374 17.0567 181.014 17.0567 179.222C17.0567 177.43 17.4567 176.07 18.2567 175.142C19.014 174.257 20.0487 173.814 21.3607 173.814ZM23.7287 179.222C23.7287 178.028 23.5207 177.116 23.1047 176.486C22.6994 175.846 22.118 175.526 21.3607 175.526C20.614 175.526 20.0327 175.846 19.6167 176.486C19.2114 177.116 19.0087 178.028 19.0087 179.222C19.0087 180.417 19.2114 181.329 19.6167 181.958C20.0327 182.577 20.614 182.886 21.3607 182.886C22.118 182.886 22.6994 182.577 23.1047 181.958C23.5207 181.329 23.7287 180.417 23.7287 179.222ZM31.4857 173.814C32.1257 173.814 32.707 173.926 33.2297 174.15C33.763 174.364 34.2164 174.694 34.5897 175.142C35.4004 176.092 35.8057 177.452 35.8057 179.222C35.8057 180.993 35.4004 182.353 34.5897 183.302C33.843 184.188 32.8137 184.63 31.5017 184.63C30.179 184.63 29.139 184.188 28.3817 183.302C27.5817 182.374 27.1817 181.014 27.1817 179.222C27.1817 177.43 27.5817 176.07 28.3817 175.142C29.139 174.257 30.1737 173.814 31.4857 173.814ZM33.8537 179.222C33.8537 178.028 33.6457 177.116 33.2297 176.486C32.8244 175.846 32.243 175.526 31.4857 175.526C30.739 175.526 30.1577 175.846 29.7417 176.486C29.3364 177.116 29.1337 178.028 29.1337 179.222C29.1337 180.417 29.3364 181.329 29.7417 181.958C30.1577 182.577 30.739 182.886 31.4857 182.886C32.243 182.886 32.8244 182.577 33.2297 181.958C33.6457 181.329 33.8537 180.417 33.8537 179.222ZM38.4107 184.486C38.112 184.433 37.856 184.316 37.6427 184.134C37.44 183.942 37.3387 183.692 37.3387 183.382C37.3387 183.062 37.4614 182.79 37.7067 182.566C37.952 182.342 38.288 182.23 38.7147 182.23C39.1414 182.23 39.488 182.396 39.7547 182.726C40.0214 183.057 40.1547 183.462 40.1547 183.942C40.1547 184.721 39.8027 185.43 39.0987 186.07C38.8747 186.273 38.624 186.444 38.3467 186.582L36.9387 185.878C37.2907 185.697 37.6 185.494 37.8667 185.27C38.144 185.046 38.3254 184.785 38.4107 184.486ZM45.6576 173.814C46.2976 173.814 46.8789 173.926 47.4016 174.15C47.9349 174.364 48.3882 174.694 48.7616 175.142C49.5722 176.092 49.9776 177.452 49.9776 179.222C49.9776 180.993 49.5722 182.353 48.7616 183.302C48.0149 184.188 46.9856 184.63 45.6736 184.63C44.3509 184.63 43.3109 184.188 42.5536 183.302C41.7536 182.374 41.3536 181.014 41.3536 179.222C41.3536 177.43 41.7536 176.07 42.5536 175.142C43.3109 174.257 44.3456 173.814 45.6576 173.814ZM48.0256 179.222C48.0256 178.028 47.8176 177.116 47.4016 176.486C46.9962 175.846 46.4149 175.526 45.6576 175.526C44.9109 175.526 44.3296 175.846 43.9136 176.486C43.5082 177.116 43.3056 178.028 43.3056 179.222C43.3056 180.417 43.5082 181.329 43.9136 181.958C44.3296 182.577 44.9109 182.886 45.6576 182.886C46.4149 182.886 46.9962 182.577 47.4016 181.958C47.8176 181.329 48.0256 180.417 48.0256 179.222ZM55.7826 173.814C56.4226 173.814 57.0039 173.926 57.5266 174.15C58.0599 174.364 58.5132 174.694 58.8866 175.142C59.6972 176.092 60.1026 177.452 60.1026 179.222C60.1026 180.993 59.6972 182.353 58.8866 183.302C58.1399 184.188 57.1106 184.63 55.7986 184.63C54.4759 184.63 53.4359 184.188 52.6786 183.302C51.8786 182.374 51.4786 181.014 51.4786 179.222C51.4786 177.43 51.8786 176.07 52.6786 175.142C53.4359 174.257 54.4706 173.814 55.7826 173.814ZM58.1506 179.222C58.1506 178.028 57.9426 177.116 57.5266 176.486C57.1212 175.846 56.5399 175.526 55.7826 175.526C55.0359 175.526 54.4546 175.846 54.0386 176.486C53.6332 177.116 53.4306 178.028 53.4306 179.222C53.4306 180.417 53.6332 181.329 54.0386 181.958C54.4546 182.577 55.0359 182.886 55.7826 182.886C56.5399 182.886 57.1212 182.577 57.5266 181.958C57.9426 181.329 58.1506 180.417 58.1506 179.222ZM65.9076 173.814C66.5476 173.814 67.1289 173.926 67.6516 174.15C68.1849 174.364 68.6382 174.694 69.0116 175.142C69.8222 176.092 70.2276 177.452 70.2276 179.222C70.2276 180.993 69.8222 182.353 69.0116 183.302C68.2649 184.188 67.2356 184.63 65.9236 184.63C64.6009 184.63 63.5609 184.188 62.8036 183.302C62.0036 182.374 61.6036 181.014 61.6036 179.222C61.6036 177.43 62.0036 176.07 62.8036 175.142C63.5609 174.257 64.5956 173.814 65.9076 173.814ZM68.2756 179.222C68.2756 178.028 68.0676 177.116 67.6516 176.486C67.2462 175.846 66.6649 175.526 65.9076 175.526C65.1609 175.526 64.5796 175.846 64.1636 176.486C63.7582 177.116 63.5556 178.028 63.5556 179.222C63.5556 180.417 63.7582 181.329 64.1636 181.958C64.5796 182.577 65.1609 182.886 65.9076 182.886C66.6649 182.886 67.2462 182.577 67.6516 181.958C68.0676 181.329 68.2756 180.417 68.2756 179.222Z" fill="#FDFDFD"/>
<path d="M233.691 161.173C233.51 160.192 232.79 159.701 231.531 159.701C230.859 159.701 230.342 159.85 229.979 160.149C229.616 160.437 229.435 160.789 229.435 161.205C229.435 161.61 229.547 161.92 229.771 162.133C229.995 162.346 230.358 162.533 230.859 162.693L232.955 163.413C233.67 163.658 234.235 163.994 234.651 164.421C235.078 164.848 235.291 165.45 235.291 166.229C235.291 166.997 234.96 167.648 234.299 168.181C233.638 168.704 232.752 168.965 231.643 168.965C230.534 168.965 229.622 168.688 228.907 168.133C228.203 167.568 227.84 166.778 227.819 165.765H229.051C229.051 166.426 229.28 166.933 229.739 167.285C230.208 167.637 230.806 167.813 231.531 167.813C232.267 167.813 232.848 167.653 233.275 167.333C233.702 167.002 233.915 166.618 233.915 166.181C233.915 165.733 233.782 165.381 233.515 165.125C233.259 164.869 232.875 164.656 232.363 164.485L230.587 163.829C229.755 163.552 229.126 163.221 228.699 162.837C228.272 162.453 228.059 161.893 228.059 161.157C228.059 160.41 228.358 159.792 228.955 159.301C229.552 158.8 230.39 158.549 231.467 158.549C232.544 158.549 233.366 158.789 233.931 159.269C234.507 159.738 234.838 160.373 234.923 161.173H233.691ZM239.202 162.309C239.704 161.402 240.45 160.949 241.442 160.949C242.445 160.949 243.277 161.317 243.938 162.053C244.61 162.789 244.946 163.76 244.946 164.965C244.946 166.17 244.61 167.141 243.938 167.877C243.266 168.602 242.44 168.965 241.458 168.965C240.477 168.965 239.752 168.597 239.282 167.861V172.549H238.018V161.141H239.058L239.202 162.309ZM241.394 167.845C241.992 167.845 242.514 167.589 242.962 167.077C243.421 166.565 243.65 165.866 243.65 164.981C243.65 164.085 243.432 163.376 242.994 162.853C242.568 162.33 242.045 162.069 241.426 162.069C240.808 162.069 240.301 162.266 239.906 162.661C239.512 163.045 239.304 163.568 239.282 164.229V165.685C239.282 166.357 239.485 166.885 239.89 167.269C240.296 167.653 240.797 167.845 241.394 167.845ZM250.158 167.941C251.214 167.941 251.817 167.477 251.966 166.549H253.262C253.145 167.317 252.804 167.914 252.238 168.341C251.684 168.757 250.99 168.965 250.158 168.965C249.134 168.965 248.302 168.602 247.662 167.877C247.022 167.141 246.702 166.165 246.702 164.949C246.702 163.733 247.022 162.762 247.662 162.037C248.313 161.312 249.172 160.949 250.238 160.949C251.316 160.949 252.116 161.365 252.638 162.197C253.172 163.029 253.358 164.042 253.198 165.237H247.966C247.966 166.026 248.158 166.677 248.542 167.189C248.926 167.69 249.465 167.941 250.158 167.941ZM251.086 162.149C250.841 162.021 250.542 161.957 250.19 161.957C249.54 161.957 249.022 162.181 248.638 162.629C248.265 163.066 248.046 163.616 247.982 164.277H252.062C252.062 163.21 251.737 162.501 251.086 162.149ZM258.297 160.949C259.203 160.949 259.923 161.184 260.457 161.653C260.99 162.112 261.337 162.688 261.497 163.381L260.217 163.493C260.078 163.045 259.854 162.698 259.545 162.453C259.235 162.197 258.894 162.069 258.521 162.069C257.838 162.069 257.283 162.325 256.857 162.837C256.441 163.349 256.233 164.048 256.233 164.933C256.233 165.808 256.435 166.512 256.841 167.045C257.257 167.578 257.769 167.845 258.377 167.845C258.995 167.845 259.454 167.706 259.753 167.429C260.062 167.141 260.217 166.736 260.217 166.213H261.513C261.513 167.034 261.225 167.701 260.649 168.213C260.083 168.714 259.342 168.965 258.425 168.965C257.454 168.965 256.627 168.597 255.945 167.861C255.273 167.125 254.937 166.149 254.937 164.933C254.937 163.706 255.273 162.736 255.945 162.021C256.617 161.306 257.401 160.949 258.297 160.949ZM264.067 161.125H265.331V168.789H264.067V161.125ZM264.691 159.333C264.435 159.333 264.232 159.264 264.083 159.125C263.944 158.976 263.875 158.784 263.875 158.549C263.875 158.304 263.944 158.112 264.083 157.973C264.232 157.824 264.435 157.749 264.691 157.749C264.947 157.749 265.15 157.824 265.299 157.973C265.459 158.112 265.539 158.304 265.539 158.549C265.539 158.784 265.459 158.976 265.299 159.125C265.15 159.264 264.947 159.333 264.691 159.333ZM273.504 163.829C273.504 163.136 273.36 162.64 273.072 162.341C272.784 162.042 272.363 161.893 271.808 161.893C271.264 161.893 270.822 162.005 270.48 162.229C270.15 162.442 269.984 162.784 269.984 163.253H268.592C268.592 162.08 269.222 161.354 270.48 161.077C270.864 160.992 271.28 160.949 271.728 160.949C272.678 160.949 273.419 161.189 273.952 161.669C274.486 162.149 274.752 162.88 274.752 163.861V168.789H273.664L273.536 167.509C273.067 168.48 272.219 168.965 270.992 168.965C270.171 168.965 269.51 168.736 269.008 168.277C268.518 167.818 268.272 167.248 268.272 166.565C268.272 165.882 268.544 165.349 269.088 164.965C269.643 164.581 270.331 164.389 271.152 164.389C271.974 164.389 272.758 164.528 273.504 164.805V163.829ZM273.504 165.605C272.747 165.392 272.086 165.285 271.52 165.285C270.955 165.285 270.496 165.386 270.144 165.589C269.792 165.792 269.616 166.112 269.616 166.549C269.616 167.509 270.16 167.989 271.248 167.989C271.867 167.989 272.395 167.77 272.832 167.333C273.28 166.885 273.504 166.309 273.504 165.605ZM277.721 157.893H278.985V168.789H277.721V157.893ZM288.962 158.725C290.477 158.725 291.688 159.184 292.594 160.101C293.512 161.008 293.97 162.229 293.97 163.765C293.97 165.29 293.512 166.512 292.594 167.429C291.688 168.336 290.477 168.789 288.962 168.789H286.002V158.725H288.962ZM287.266 167.685H288.962C290.082 167.685 290.973 167.317 291.634 166.581C292.296 165.834 292.626 164.89 292.626 163.749C292.626 162.608 292.29 161.674 291.618 160.949C290.957 160.213 290.072 159.845 288.962 159.845H287.266V167.685ZM299.236 167.941C300.292 167.941 300.895 167.477 301.044 166.549H302.34C302.223 167.317 301.882 167.914 301.316 168.341C300.762 168.757 300.068 168.965 299.236 168.965C298.212 168.965 297.38 168.602 296.74 167.877C296.1 167.141 295.78 166.165 295.78 164.949C295.78 163.733 296.1 162.762 296.74 162.037C297.391 161.312 298.25 160.949 299.316 160.949C300.394 160.949 301.194 161.365 301.716 162.197C302.25 163.029 302.436 164.042 302.276 165.237H297.044C297.044 166.026 297.236 166.677 297.62 167.189C298.004 167.69 298.543 167.941 299.236 167.941ZM300.164 162.149C299.919 162.021 299.62 161.957 299.268 161.957C298.618 161.957 298.1 162.181 297.716 162.629C297.343 163.066 297.124 163.616 297.06 164.277H301.14C301.14 163.21 300.815 162.501 300.164 162.149ZM308.543 158.965C308.191 158.826 307.914 158.757 307.711 158.757C307.338 158.757 307.044 158.848 306.831 159.029C306.618 159.21 306.511 159.53 306.511 159.989V161.141H308.095V162.005H306.511V168.789H305.263V162.005H303.999V161.141H305.263V159.973C305.263 159.216 305.471 158.661 305.887 158.309C306.303 157.946 306.783 157.765 307.327 157.765C307.871 157.765 308.351 157.834 308.767 157.973L308.543 158.965ZM312.955 167.941C314.011 167.941 314.614 167.477 314.763 166.549H316.059C315.942 167.317 315.601 167.914 315.035 168.341C314.481 168.757 313.787 168.965 312.955 168.965C311.931 168.965 311.099 168.602 310.459 167.877C309.819 167.141 309.499 166.165 309.499 164.949C309.499 163.733 309.819 162.762 310.459 162.037C311.11 161.312 311.969 160.949 313.035 160.949C314.113 160.949 314.913 161.365 315.435 162.197C315.969 163.029 316.155 164.042 315.995 165.237H310.763C310.763 166.026 310.955 166.677 311.339 167.189C311.723 167.69 312.262 167.941 312.955 167.941ZM313.883 162.149C313.638 162.021 313.339 161.957 312.987 161.957C312.337 161.957 311.819 162.181 311.435 162.629C311.062 163.066 310.843 163.616 310.779 164.277H314.859C314.859 163.21 314.534 162.501 313.883 162.149ZM319.766 162.613C320.267 161.504 321.126 160.949 322.342 160.949C323.248 160.949 323.952 161.248 324.454 161.845C324.966 162.442 325.222 163.258 325.222 164.293V168.789H323.974V164.293C323.974 163.557 323.798 163.002 323.446 162.629C323.104 162.256 322.614 162.069 321.974 162.069C321.334 162.069 320.816 162.33 320.422 162.853C320.027 163.376 319.819 164.101 319.798 165.029V168.789H318.534V161.141H319.622L319.766 162.613ZM327.79 163.013C327.79 162.384 328.057 161.882 328.59 161.509C329.134 161.136 329.865 160.949 330.782 160.949C331.7 160.949 332.414 161.141 332.926 161.525C333.449 161.909 333.721 162.394 333.742 162.981H332.51C332.414 162.288 331.828 161.941 330.75 161.941C330.228 161.941 329.822 162.058 329.534 162.293C329.257 162.528 329.118 162.784 329.118 163.061C329.118 163.328 329.225 163.557 329.438 163.749C329.652 163.93 329.993 164.09 330.462 164.229L331.998 164.741C332.649 164.944 333.145 165.205 333.486 165.525C333.838 165.834 334.014 166.266 334.014 166.821C334.014 167.365 333.732 167.861 333.166 168.309C332.601 168.746 331.812 168.965 330.798 168.965C329.785 168.965 328.996 168.741 328.43 168.293C327.865 167.834 327.566 167.248 327.534 166.533H328.75C328.772 167.013 328.964 167.376 329.326 167.621C329.7 167.856 330.164 167.973 330.718 167.973C331.273 167.973 331.732 167.856 332.094 167.621C332.457 167.386 332.638 167.109 332.638 166.789C332.638 166.458 332.532 166.208 332.318 166.037C332.105 165.866 331.758 165.717 331.278 165.589L329.79 165.093C328.457 164.698 327.79 164.005 327.79 163.013ZM339.252 167.941C340.308 167.941 340.911 167.477 341.06 166.549H342.356C342.239 167.317 341.897 167.914 341.332 168.341C340.777 168.757 340.084 168.965 339.252 168.965C338.228 168.965 337.396 168.602 336.756 167.877C336.116 167.141 335.796 166.165 335.796 164.949C335.796 163.733 336.116 162.762 336.756 162.037C337.407 161.312 338.265 160.949 339.332 160.949C340.409 160.949 341.209 161.365 341.732 162.197C342.265 163.029 342.452 164.042 342.292 165.237H337.06C337.06 166.026 337.252 166.677 337.636 167.189C338.02 167.69 338.559 167.941 339.252 167.941ZM340.18 162.149C339.935 162.021 339.636 161.957 339.284 161.957C338.633 161.957 338.116 162.181 337.732 162.629C337.359 163.066 337.14 163.616 337.076 164.277H341.156C341.156 163.21 340.831 162.501 340.18 162.149Z" fill="#FDFDFD"/>
<rect x="226.715" y="190.453" width="168.397" height="7.05474" rx="3.52737" fill="#F6F7F9"/>
<rect x="226.715" y="190.453" width="138.783" height="7.05474" rx="3.52737" fill="#F5DB13"/>
<path d="M227.387 174.806C228.187 174.689 228.891 174.406 229.499 173.958H230.923V184.406H229.035V176.214C228.491 176.481 227.942 176.614 227.387 176.614V174.806ZM237.49 173.814C238.13 173.814 238.711 173.926 239.234 174.15C239.767 174.364 240.22 174.694 240.594 175.142C241.404 176.092 241.81 177.452 241.81 179.222C241.81 180.993 241.404 182.353 240.594 183.302C239.847 184.188 238.818 184.63 237.506 184.63C236.183 184.63 235.143 184.188 234.386 183.302C233.586 182.374 233.186 181.014 233.186 179.222C233.186 177.43 233.586 176.07 234.386 175.142C235.143 174.257 236.178 173.814 237.49 173.814ZM239.858 179.222C239.858 178.028 239.65 177.116 239.234 176.486C238.828 175.846 238.247 175.526 237.49 175.526C236.743 175.526 236.162 175.846 235.746 176.486C235.34 177.116 235.138 178.028 235.138 179.222C235.138 180.417 235.34 181.329 235.746 181.958C236.162 182.577 236.743 182.886 237.49 182.886C238.247 182.886 238.828 182.577 239.234 181.958C239.65 181.329 239.858 180.417 239.858 179.222ZM247.615 173.814C248.255 173.814 248.836 173.926 249.359 174.15C249.892 174.364 250.345 174.694 250.719 175.142C251.529 176.092 251.935 177.452 251.935 179.222C251.935 180.993 251.529 182.353 250.719 183.302C249.972 184.188 248.943 184.63 247.631 184.63C246.308 184.63 245.268 184.188 244.511 183.302C243.711 182.374 243.311 181.014 243.311 179.222C243.311 177.43 243.711 176.07 244.511 175.142C245.268 174.257 246.303 173.814 247.615 173.814ZM249.983 179.222C249.983 178.028 249.775 177.116 249.359 176.486C248.953 175.846 248.372 175.526 247.615 175.526C246.868 175.526 246.287 175.846 245.871 176.486C245.465 177.116 245.263 178.028 245.263 179.222C245.263 180.417 245.465 181.329 245.871 181.958C246.287 182.577 246.868 182.886 247.615 182.886C248.372 182.886 248.953 182.577 249.359 181.958C249.775 181.329 249.983 180.417 249.983 179.222ZM257.74 173.814C258.38 173.814 258.961 173.926 259.484 174.15C260.017 174.364 260.47 174.694 260.844 175.142C261.654 176.092 262.06 177.452 262.06 179.222C262.06 180.993 261.654 182.353 260.844 183.302C260.097 184.188 259.068 184.63 257.756 184.63C256.433 184.63 255.393 184.188 254.636 183.302C253.836 182.374 253.436 181.014 253.436 179.222C253.436 177.43 253.836 176.07 254.636 175.142C255.393 174.257 256.428 173.814 257.74 173.814ZM260.108 179.222C260.108 178.028 259.9 177.116 259.484 176.486C259.078 175.846 258.497 175.526 257.74 175.526C256.993 175.526 256.412 175.846 255.996 176.486C255.59 177.116 255.388 178.028 255.388 179.222C255.388 180.417 255.59 181.329 255.996 181.958C256.412 182.577 256.993 182.886 257.74 182.886C258.497 182.886 259.078 182.577 259.484 181.958C259.9 181.329 260.108 180.417 260.108 179.222ZM264.665 184.486C264.366 184.433 264.11 184.316 263.897 184.134C263.694 183.942 263.593 183.692 263.593 183.382C263.593 183.062 263.715 182.79 263.961 182.566C264.206 182.342 264.542 182.23 264.969 182.23C265.395 182.23 265.742 182.396 266.009 182.726C266.275 183.057 266.409 183.462 266.409 183.942C266.409 184.721 266.057 185.43 265.353 186.07C265.129 186.273 264.878 186.444 264.601 186.582L263.193 185.878C263.545 185.697 263.854 185.494 264.121 185.27C264.398 185.046 264.579 184.785 264.665 184.486ZM271.911 173.814C272.551 173.814 273.133 173.926 273.655 174.15C274.189 174.364 274.642 174.694 275.015 175.142C275.826 176.092 276.231 177.452 276.231 179.222C276.231 180.993 275.826 182.353 275.015 183.302C274.269 184.188 273.239 184.63 271.927 184.63C270.605 184.63 269.565 184.188 268.807 183.302C268.007 182.374 267.607 181.014 267.607 179.222C267.607 177.43 268.007 176.07 268.807 175.142C269.565 174.257 270.599 173.814 271.911 173.814ZM274.279 179.222C274.279 178.028 274.071 177.116 273.655 176.486C273.25 175.846 272.669 175.526 271.911 175.526C271.165 175.526 270.583 175.846 270.167 176.486C269.762 177.116 269.559 178.028 269.559 179.222C269.559 180.417 269.762 181.329 270.167 181.958C270.583 182.577 271.165 182.886 271.911 182.886C272.669 182.886 273.25 182.577 273.655 181.958C274.071 181.329 274.279 180.417 274.279 179.222ZM282.036 173.814C282.676 173.814 283.258 173.926 283.78 174.15C284.314 174.364 284.767 174.694 285.14 175.142C285.951 176.092 286.356 177.452 286.356 179.222C286.356 180.993 285.951 182.353 285.14 183.302C284.394 184.188 283.364 184.63 282.052 184.63C280.73 184.63 279.69 184.188 278.932 183.302C278.132 182.374 277.732 181.014 277.732 179.222C277.732 177.43 278.132 176.07 278.932 175.142C279.69 174.257 280.724 173.814 282.036 173.814ZM284.404 179.222C284.404 178.028 284.196 177.116 283.78 176.486C283.375 175.846 282.794 175.526 282.036 175.526C281.29 175.526 280.708 175.846 280.292 176.486C279.887 177.116 279.684 178.028 279.684 179.222C279.684 180.417 279.887 181.329 280.292 181.958C280.708 182.577 281.29 182.886 282.036 182.886C282.794 182.886 283.375 182.577 283.78 181.958C284.196 181.329 284.404 180.417 284.404 179.222ZM292.161 173.814C292.801 173.814 293.383 173.926 293.905 174.15C294.439 174.364 294.892 174.694 295.265 175.142C296.076 176.092 296.481 177.452 296.481 179.222C296.481 180.993 296.076 182.353 295.265 183.302C294.519 184.188 293.489 184.63 292.177 184.63C290.855 184.63 289.815 184.188 289.057 183.302C288.257 182.374 287.857 181.014 287.857 179.222C287.857 177.43 288.257 176.07 289.057 175.142C289.815 174.257 290.849 173.814 292.161 173.814ZM294.529 179.222C294.529 178.028 294.321 177.116 293.905 176.486C293.5 175.846 292.919 175.526 292.161 175.526C291.415 175.526 290.833 175.846 290.417 176.486C290.012 177.116 289.809 178.028 289.809 179.222C289.809 180.417 290.012 181.329 290.417 181.958C290.833 182.577 291.415 182.886 292.161 182.886C292.919 182.886 293.5 182.577 293.905 181.958C294.321 181.329 294.529 180.417 294.529 179.222Z" fill="#FDFDFD"/>
</svg>
