<svg width="137" height="61" viewBox="0 0 137 61" fill="none" xmlns="http://www.w3.org/2000/svg">
<g filter="url(#filter0_d)">
<rect x="0.667969" y="0.609375" width="127.868" height="52.3033" rx="16" fill="url(#paint0_linear)"/>
</g>
<path d="M14.5117 29.002L17.5791 24.0977H19.5654L15.5225 30.4434L19.6621 36.8945H17.6582L14.5117 31.9023L11.3477 36.8945H9.35254L13.501 30.4434L9.44922 24.0977H11.4268L14.5117 29.002ZM25.085 37.0703C23.7959 37.0703 22.7471 36.6484 21.9385 35.8047C21.1299 34.9551 20.7256 33.8213 20.7256 32.4033V32.1045C20.7256 31.1611 20.9043 30.3203 21.2617 29.582C21.625 28.8379 22.1289 28.2578 22.7734 27.8418C23.4238 27.4199 24.127 27.209 24.8828 27.209C26.1191 27.209 27.0801 27.6162 27.7656 28.4307C28.4512 29.2451 28.7939 30.4111 28.7939 31.9287V32.6055H22.3516C22.375 33.543 22.6475 34.3018 23.1689 34.8818C23.6963 35.4561 24.3643 35.7432 25.1729 35.7432C25.7471 35.7432 26.2334 35.626 26.6318 35.3916C27.0303 35.1572 27.3789 34.8467 27.6777 34.46L28.6709 35.2334C27.874 36.458 26.6787 37.0703 25.085 37.0703ZM24.8828 28.5449C24.2266 28.5449 23.6758 28.7852 23.2305 29.2656C22.7852 29.7402 22.5098 30.4082 22.4043 31.2695H27.168V31.1465C27.1211 30.3203 26.8984 29.6816 26.5 29.2305C26.1016 28.7734 25.5625 28.5449 24.8828 28.5449ZM35.2803 28.8438C35.0342 28.8027 34.7676 28.7822 34.4805 28.7822C33.4141 28.7822 32.6904 29.2363 32.3096 30.1445V36.8945H30.6836V27.3848H32.2656L32.292 28.4834C32.8252 27.6338 33.5811 27.209 34.5596 27.209C34.876 27.209 35.1162 27.25 35.2803 27.332V28.8438ZM38.3213 27.3848L38.374 28.5801C39.1006 27.666 40.0498 27.209 41.2217 27.209C43.2314 27.209 44.2451 28.3428 44.2627 30.6104V36.8945H42.6367V30.6016C42.6309 29.916 42.4727 29.4092 42.1621 29.0811C41.8574 28.7529 41.3799 28.5889 40.7295 28.5889C40.2021 28.5889 39.7393 28.7295 39.3408 29.0107C38.9424 29.292 38.6318 29.6611 38.4092 30.1182V36.8945H36.7832V27.3848H38.3213ZM50.6611 37.0703C49.3721 37.0703 48.3232 36.6484 47.5146 35.8047C46.7061 34.9551 46.3018 33.8213 46.3018 32.4033V32.1045C46.3018 31.1611 46.4805 30.3203 46.8379 29.582C47.2012 28.8379 47.7051 28.2578 48.3496 27.8418C49 27.4199 49.7031 27.209 50.459 27.209C51.6953 27.209 52.6562 27.6162 53.3418 28.4307C54.0273 29.2451 54.3701 30.4111 54.3701 31.9287V32.6055H47.9277C47.9512 33.543 48.2236 34.3018 48.7451 34.8818C49.2725 35.4561 49.9404 35.7432 50.749 35.7432C51.3232 35.7432 51.8096 35.626 52.208 35.3916C52.6064 35.1572 52.9551 34.8467 53.2539 34.46L54.2471 35.2334C53.4502 36.458 52.2549 37.0703 50.6611 37.0703ZM50.459 28.5449C49.8027 28.5449 49.252 28.7852 48.8066 29.2656C48.3613 29.7402 48.0859 30.4082 47.9805 31.2695H52.7441V31.1465C52.6973 30.3203 52.4746 29.6816 52.0762 29.2305C51.6777 28.7734 51.1387 28.5449 50.459 28.5449ZM62.1309 36.8945C62.0371 36.707 61.9609 36.373 61.9023 35.8926C61.1465 36.6777 60.2441 37.0703 59.1953 37.0703C58.2578 37.0703 57.4873 36.8066 56.8838 36.2793C56.2861 35.7461 55.9873 35.0723 55.9873 34.2578C55.9873 33.2676 56.3623 32.5 57.1123 31.9551C57.8682 31.4043 58.9287 31.1289 60.2939 31.1289H61.876V30.3818C61.876 29.8135 61.7061 29.3623 61.3662 29.0283C61.0264 28.6885 60.5254 28.5186 59.8633 28.5186C59.2832 28.5186 58.7969 28.665 58.4043 28.958C58.0117 29.251 57.8154 29.6055 57.8154 30.0215H56.1807C56.1807 29.5469 56.3477 29.0898 56.6816 28.6504C57.0215 28.2051 57.4785 27.8535 58.0527 27.5957C58.6328 27.3379 59.2686 27.209 59.96 27.209C61.0557 27.209 61.9141 27.4844 62.5352 28.0352C63.1562 28.5801 63.4785 29.333 63.502 30.2939V34.6709C63.502 35.5439 63.6133 36.2383 63.8359 36.7539V36.8945H62.1309ZM59.4326 35.6553C59.9424 35.6553 60.4258 35.5234 60.8828 35.2598C61.3398 34.9961 61.6709 34.6533 61.876 34.2314V32.2803H60.6016C58.6094 32.2803 57.6133 32.8633 57.6133 34.0293C57.6133 34.5391 57.7832 34.9375 58.123 35.2246C58.4629 35.5117 58.8994 35.6553 59.4326 35.6553ZM71.5879 34.3721C71.5879 33.9326 71.4209 33.5928 71.0869 33.3525C70.7588 33.1064 70.1816 32.8955 69.3555 32.7197C68.5352 32.5439 67.8818 32.333 67.3955 32.0869C66.915 31.8408 66.5576 31.5479 66.3232 31.208C66.0947 30.8682 65.9805 30.4639 65.9805 29.9951C65.9805 29.2158 66.3086 28.5566 66.9648 28.0176C67.627 27.4785 68.4707 27.209 69.4961 27.209C70.5742 27.209 71.4473 27.4873 72.1152 28.0439C72.7891 28.6006 73.126 29.3125 73.126 30.1797H71.4912C71.4912 29.7344 71.3008 29.3506 70.9199 29.0283C70.5449 28.7061 70.0703 28.5449 69.4961 28.5449C68.9043 28.5449 68.4414 28.6738 68.1074 28.9316C67.7734 29.1895 67.6064 29.5264 67.6064 29.9424C67.6064 30.335 67.7617 30.6309 68.0723 30.8301C68.3828 31.0293 68.9424 31.2197 69.751 31.4014C70.5654 31.583 71.2246 31.7998 71.7285 32.0518C72.2324 32.3037 72.6045 32.6084 72.8447 32.9658C73.0908 33.3174 73.2139 33.748 73.2139 34.2578C73.2139 35.1074 72.874 35.79 72.1943 36.3057C71.5146 36.8154 70.6328 37.0703 69.5488 37.0703C68.7871 37.0703 68.1133 36.9355 67.5273 36.666C66.9414 36.3965 66.4814 36.0215 66.1475 35.541C65.8193 35.0547 65.6553 34.5303 65.6553 33.9678H67.2812C67.3105 34.5127 67.5273 34.9463 67.9316 35.2686C68.3418 35.585 68.8809 35.7432 69.5488 35.7432C70.1641 35.7432 70.6562 35.6201 71.0254 35.374C71.4004 35.1221 71.5879 34.7881 71.5879 34.3721Z" fill="#1D1E1D"/>
<g filter="url(#filter1_d)">
<g clip-path="url(#clip0)">
<path d="M117.277 36.94C120.665 33.517 120.665 27.9673 117.277 24.5444C113.889 21.1214 108.397 21.1214 105.009 24.5444C101.621 27.9673 101.621 33.517 105.009 36.94C108.397 40.363 113.889 40.363 117.277 36.94Z" fill="#1D1E1D"/>
<path d="M120.35 29.7683C119.868 25.0609 115.93 21.3906 111.143 21.3906C106.357 21.3906 102.42 25.0609 101.938 29.7683H120.35Z" fill="url(#paint1_linear)"/>
<path d="M101.938 31.7148C102.42 36.4223 106.358 40.0925 111.143 40.0925C115.929 40.0925 119.868 36.4223 120.349 31.7148H101.938Z" fill="#E7E7E9"/>
<path d="M111.143 33.6904C112.754 33.6904 114.059 32.3711 114.059 30.7436C114.059 29.1162 112.754 27.7969 111.143 27.7969C109.532 27.7969 108.227 29.1162 108.227 30.7436C108.227 32.3711 109.532 33.6904 111.143 33.6904Z" fill="#1D1E1D"/>
<path d="M111.142 33.046C112.4 33.046 113.421 32.0152 113.421 30.7437C113.421 29.4722 112.4 28.4414 111.142 28.4414C109.883 28.4414 108.863 29.4722 108.863 30.7437C108.863 32.0152 109.883 33.046 111.142 33.046Z" fill="#F7F7F7"/>
<path d="M111.143 32.2989C111.993 32.2989 112.681 31.6033 112.681 30.7452C112.681 29.8871 111.993 29.1914 111.143 29.1914C110.294 29.1914 109.605 29.8871 109.605 30.7452C109.605 31.6033 110.294 32.2989 111.143 32.2989Z" fill="#B8B5B5"/>
<path d="M111.143 32.1829C111.93 32.1829 112.567 31.5386 112.567 30.7438C112.567 29.949 111.93 29.3047 111.143 29.3047C110.356 29.3047 109.719 29.949 109.719 30.7438C109.719 31.5386 110.356 32.1829 111.143 32.1829Z" fill="#F7F7F7"/>
</g>
</g>
<defs>
<filter id="filter0_d" x="0.667969" y="0.609375" width="135.868" height="60.3033" filterUnits="userSpaceOnUse" color-interpolation-filters="sRGB">
<feFlood flood-opacity="0" result="BackgroundImageFix"/>
<feColorMatrix in="SourceAlpha" type="matrix" values="0 0 0 0 0 0 0 0 0 0 0 0 0 0 0 0 0 0 127 0"/>
<feOffset dx="4" dy="4"/>
<feGaussianBlur stdDeviation="2"/>
<feColorMatrix type="matrix" values="0 0 0 0 0.129167 0 0 0 0 0.129167 0 0 0 0 0.129167 0 0 0 0.1 0"/>
<feBlend mode="normal" in2="BackgroundImageFix" result="effect1_dropShadow"/>
<feBlend mode="normal" in="SourceGraphic" in2="effect1_dropShadow" result="shape"/>
</filter>
<filter id="filter1_d" x="97.9375" y="21.3906" width="26.413" height="26.7045" filterUnits="userSpaceOnUse" color-interpolation-filters="sRGB">
<feFlood flood-opacity="0" result="BackgroundImageFix"/>
<feColorMatrix in="SourceAlpha" type="matrix" values="0 0 0 0 0 0 0 0 0 0 0 0 0 0 0 0 0 0 127 0"/>
<feOffset dy="4"/>
<feGaussianBlur stdDeviation="2"/>
<feColorMatrix type="matrix" values="0 0 0 0 0 0 0 0 0 0 0 0 0 0 0 0 0 0 0.25 0"/>
<feBlend mode="normal" in2="BackgroundImageFix" result="effect1_dropShadow"/>
<feBlend mode="normal" in="SourceGraphic" in2="effect1_dropShadow" result="shape"/>
</filter>
<linearGradient id="paint0_linear" x1="64.6019" y1="0.609375" x2="64.6019" y2="52.9126" gradientUnits="userSpaceOnUse">
<stop offset="0.30316" stop-color="white"/>
<stop offset="1" stop-color="#F5F5F5"/>
</linearGradient>
<linearGradient id="paint1_linear" x1="121.912" y1="28.4031" x2="105.315" y2="28.7479" gradientUnits="userSpaceOnUse">
<stop stop-color="#B57E10"/>
<stop offset="0.240861" stop-color="#B57E10"/>
<stop offset="0.404291" stop-color="#F9DF7B"/>
<stop offset="0.59375" stop-color="#FFF3A6"/>
<stop offset="0.78125" stop-color="#F9DF7B"/>
<stop offset="1" stop-color="#B57E10"/>
</linearGradient>
<clipPath id="clip0">
<rect width="18.413" height="18.7045" fill="white" transform="translate(101.938 21.3906)"/>
</clipPath>
</defs>
</svg>
