<svg width="137" height="61" viewBox="0 0 137 61" fill="none" xmlns="http://www.w3.org/2000/svg">
<g filter="url(#filter0_d)">
<rect x="0.609375" y="0.609375" width="127.868" height="52.3033" rx="16" fill="url(#paint0_linear)"/>
</g>
<path d="M11.5439 35.5146H18.8652V36.8945H9.54883V35.6289L16.5625 25.4863H9.66309V24.0977H18.584V25.3369L11.5439 35.5146ZM26.6699 36.8945C26.5762 36.707 26.5 36.373 26.4414 35.8926C25.6855 36.6777 24.7832 37.0703 23.7344 37.0703C22.7969 37.0703 22.0264 36.8066 21.4229 36.2793C20.8252 35.7461 20.5264 35.0723 20.5264 34.2578C20.5264 33.2676 20.9014 32.5 21.6514 31.9551C22.4072 31.4043 23.4678 31.1289 24.833 31.1289H26.415V30.3818C26.415 29.8135 26.2451 29.3623 25.9053 29.0283C25.5654 28.6885 25.0645 28.5186 24.4023 28.5186C23.8223 28.5186 23.3359 28.665 22.9434 28.958C22.5508 29.251 22.3545 29.6055 22.3545 30.0215H20.7197C20.7197 29.5469 20.8867 29.0898 21.2207 28.6504C21.5605 28.2051 22.0176 27.8535 22.5918 27.5957C23.1719 27.3379 23.8076 27.209 24.499 27.209C25.5947 27.209 26.4531 27.4844 27.0742 28.0352C27.6953 28.5801 28.0176 29.333 28.041 30.2939V34.6709C28.041 35.5439 28.1523 36.2383 28.375 36.7539V36.8945H26.6699ZM23.9717 35.6553C24.4814 35.6553 24.9648 35.5234 25.4219 35.2598C25.8789 34.9961 26.21 34.6533 26.415 34.2314V32.2803H25.1406C23.1484 32.2803 22.1523 32.8633 22.1523 34.0293C22.1523 34.5391 22.3223 34.9375 22.6621 35.2246C23.002 35.5117 23.4385 35.6553 23.9717 35.6553ZM38.623 32.2451C38.623 33.6924 38.292 34.8584 37.6299 35.7432C36.9678 36.6279 36.0713 37.0703 34.9404 37.0703C33.7861 37.0703 32.8779 36.7041 32.2158 35.9717V40.5508H30.5898V27.3848H32.0752L32.1543 28.4395C32.8164 27.6191 33.7363 27.209 34.9141 27.209C36.0566 27.209 36.959 27.6396 37.6211 28.501C38.2891 29.3623 38.623 30.5605 38.623 32.0957V32.2451ZM36.9971 32.0605C36.9971 30.9883 36.7686 30.1416 36.3115 29.5205C35.8545 28.8994 35.2275 28.5889 34.4307 28.5889C33.4463 28.5889 32.708 29.0254 32.2158 29.8984V34.4424C32.7021 35.3096 33.4463 35.7432 34.4482 35.7432C35.2275 35.7432 35.8457 35.4355 36.3027 34.8203C36.7656 34.1992 36.9971 33.2793 36.9971 32.0605ZM40.3018 32.0605C40.3018 30.6016 40.6475 29.4297 41.3389 28.5449C42.0303 27.6543 42.9355 27.209 44.0547 27.209C45.168 27.209 46.0498 27.5898 46.7002 28.3516V23.3945H48.3262V36.8945H46.832L46.7529 35.875C46.1025 36.6719 45.1973 37.0703 44.0371 37.0703C42.9355 37.0703 42.0361 36.6191 41.3389 35.7168C40.6475 34.8145 40.3018 33.6367 40.3018 32.1836V32.0605ZM41.9277 32.2451C41.9277 33.3232 42.1504 34.167 42.5957 34.7764C43.041 35.3857 43.6562 35.6904 44.4414 35.6904C45.4727 35.6904 46.2256 35.2275 46.7002 34.3018V29.9336C46.2139 29.0371 45.4668 28.5889 44.459 28.5889C43.6621 28.5889 43.041 28.8965 42.5957 29.5117C42.1504 30.127 41.9277 31.0381 41.9277 32.2451ZM50.4268 32.0518C50.4268 31.1201 50.6084 30.2822 50.9717 29.5381C51.3408 28.7939 51.8506 28.2197 52.501 27.8154C53.1572 27.4111 53.9043 27.209 54.7422 27.209C56.0371 27.209 57.083 27.6572 57.8799 28.5537C58.6826 29.4502 59.084 30.6426 59.084 32.1309V32.2451C59.084 33.1709 58.9053 34.0029 58.5479 34.7412C58.1963 35.4736 57.6895 36.0449 57.0273 36.4551C56.3711 36.8652 55.6152 37.0703 54.7598 37.0703C53.4707 37.0703 52.4248 36.6221 51.6221 35.7256C50.8252 34.8291 50.4268 33.6426 50.4268 32.166V32.0518ZM52.0615 32.2451C52.0615 33.2998 52.3047 34.1465 52.791 34.7852C53.2832 35.4238 53.9395 35.7432 54.7598 35.7432C55.5859 35.7432 56.2422 35.4209 56.7285 34.7764C57.2148 34.126 57.458 33.2178 57.458 32.0518C57.458 31.0088 57.209 30.165 56.7109 29.5205C56.2188 28.8701 55.5625 28.5449 54.7422 28.5449C53.9395 28.5449 53.292 28.8643 52.7998 29.5029C52.3076 30.1416 52.0615 31.0557 52.0615 32.2451ZM66.6602 34.3721C66.6602 33.9326 66.4932 33.5928 66.1592 33.3525C65.8311 33.1064 65.2539 32.8955 64.4277 32.7197C63.6074 32.5439 62.9541 32.333 62.4678 32.0869C61.9873 31.8408 61.6299 31.5479 61.3955 31.208C61.167 30.8682 61.0527 30.4639 61.0527 29.9951C61.0527 29.2158 61.3809 28.5566 62.0371 28.0176C62.6992 27.4785 63.543 27.209 64.5684 27.209C65.6465 27.209 66.5195 27.4873 67.1875 28.0439C67.8613 28.6006 68.1982 29.3125 68.1982 30.1797H66.5635C66.5635 29.7344 66.373 29.3506 65.9922 29.0283C65.6172 28.7061 65.1426 28.5449 64.5684 28.5449C63.9766 28.5449 63.5137 28.6738 63.1797 28.9316C62.8457 29.1895 62.6787 29.5264 62.6787 29.9424C62.6787 30.335 62.834 30.6309 63.1445 30.8301C63.4551 31.0293 64.0146 31.2197 64.8232 31.4014C65.6377 31.583 66.2969 31.7998 66.8008 32.0518C67.3047 32.3037 67.6768 32.6084 67.917 32.9658C68.1631 33.3174 68.2861 33.748 68.2861 34.2578C68.2861 35.1074 67.9463 35.79 67.2666 36.3057C66.5869 36.8154 65.7051 37.0703 64.6211 37.0703C63.8594 37.0703 63.1855 36.9355 62.5996 36.666C62.0137 36.3965 61.5537 36.0215 61.2197 35.541C60.8916 35.0547 60.7275 34.5303 60.7275 33.9678H62.3535C62.3828 34.5127 62.5996 34.9463 63.0039 35.2686C63.4141 35.585 63.9531 35.7432 64.6211 35.7432C65.2363 35.7432 65.7285 35.6201 66.0977 35.374C66.4727 35.1221 66.6602 34.7881 66.6602 34.3721Z" fill="#1D1E1D"/>
<g filter="url(#filter1_d)">
<g clip-path="url(#clip0)">
<path d="M117.219 36.94C120.606 33.517 120.606 27.9673 117.219 24.5444C113.831 21.1214 108.338 21.1214 104.95 24.5444C101.563 27.9673 101.563 33.517 104.95 36.94C108.338 40.363 113.831 40.363 117.219 36.94Z" fill="#1D1E1D"/>
<path d="M120.292 29.7683C119.809 25.0609 115.872 21.3906 111.085 21.3906C106.298 21.3906 102.362 25.0609 101.879 29.7683H120.292Z" fill="url(#paint1_linear)"/>
<path d="M101.879 31.7148C102.362 36.4223 106.299 40.0925 111.085 40.0925C115.87 40.0925 119.809 36.4223 120.291 31.7148H101.879Z" fill="#E7E7E9"/>
<path d="M111.084 33.6904C112.695 33.6904 114.001 32.3711 114.001 30.7436C114.001 29.1162 112.695 27.7969 111.084 27.7969C109.474 27.7969 108.168 29.1162 108.168 30.7436C108.168 32.3711 109.474 33.6904 111.084 33.6904Z" fill="#1D1E1D"/>
<path d="M111.083 33.046C112.342 33.046 113.362 32.0152 113.362 30.7437C113.362 29.4722 112.342 28.4414 111.083 28.4414C109.825 28.4414 108.805 29.4722 108.805 30.7437C108.805 32.0152 109.825 33.046 111.083 33.046Z" fill="#F7F7F7"/>
<path d="M111.085 32.2989C111.934 32.2989 112.622 31.6033 112.622 30.7452C112.622 29.8871 111.934 29.1914 111.085 29.1914C110.235 29.1914 109.547 29.8871 109.547 30.7452C109.547 31.6033 110.235 32.2989 111.085 32.2989Z" fill="#B8B5B5"/>
<path d="M111.084 32.1829C111.871 32.1829 112.509 31.5386 112.509 30.7438C112.509 29.949 111.871 29.3047 111.084 29.3047C110.298 29.3047 109.66 29.949 109.66 30.7438C109.66 31.5386 110.298 32.1829 111.084 32.1829Z" fill="#F7F7F7"/>
</g>
</g>
<defs>
<filter id="filter0_d" x="0.609375" y="0.609375" width="135.868" height="60.3033" filterUnits="userSpaceOnUse" color-interpolation-filters="sRGB">
<feFlood flood-opacity="0" result="BackgroundImageFix"/>
<feColorMatrix in="SourceAlpha" type="matrix" values="0 0 0 0 0 0 0 0 0 0 0 0 0 0 0 0 0 0 127 0"/>
<feOffset dx="4" dy="4"/>
<feGaussianBlur stdDeviation="2"/>
<feColorMatrix type="matrix" values="0 0 0 0 0.129167 0 0 0 0 0.129167 0 0 0 0 0.129167 0 0 0 0.1 0"/>
<feBlend mode="normal" in2="BackgroundImageFix" result="effect1_dropShadow"/>
<feBlend mode="normal" in="SourceGraphic" in2="effect1_dropShadow" result="shape"/>
</filter>
<filter id="filter1_d" x="97.8789" y="21.3906" width="26.413" height="26.7045" filterUnits="userSpaceOnUse" color-interpolation-filters="sRGB">
<feFlood flood-opacity="0" result="BackgroundImageFix"/>
<feColorMatrix in="SourceAlpha" type="matrix" values="0 0 0 0 0 0 0 0 0 0 0 0 0 0 0 0 0 0 127 0"/>
<feOffset dy="4"/>
<feGaussianBlur stdDeviation="2"/>
<feColorMatrix type="matrix" values="0 0 0 0 0 0 0 0 0 0 0 0 0 0 0 0 0 0 0.25 0"/>
<feBlend mode="normal" in2="BackgroundImageFix" result="effect1_dropShadow"/>
<feBlend mode="normal" in="SourceGraphic" in2="effect1_dropShadow" result="shape"/>
</filter>
<linearGradient id="paint0_linear" x1="64.5433" y1="0.609375" x2="64.5433" y2="52.9126" gradientUnits="userSpaceOnUse">
<stop offset="0.30316" stop-color="white"/>
<stop offset="1" stop-color="#F5F5F5"/>
</linearGradient>
<linearGradient id="paint1_linear" x1="121.854" y1="28.4031" x2="105.256" y2="28.7479" gradientUnits="userSpaceOnUse">
<stop stop-color="#B57E10"/>
<stop offset="0.240861" stop-color="#B57E10"/>
<stop offset="0.404291" stop-color="#F9DF7B"/>
<stop offset="0.59375" stop-color="#FFF3A6"/>
<stop offset="0.78125" stop-color="#F9DF7B"/>
<stop offset="1" stop-color="#B57E10"/>
</linearGradient>
<clipPath id="clip0">
<rect width="18.413" height="18.7045" fill="white" transform="translate(101.879 21.3906)"/>
</clipPath>
</defs>
</svg>
